<svg width="626" height="343" viewBox="0 0 626 343" fill="none" xmlns="http://www.w3.org/2000/svg">
<path d="M264.62 56.5909C255.94 56.7409 243.29 57.0409 234.72 57.0409H234.28V56.5909L234.23 43.9609V43.4609H234.73C243.55 43.4609 255.94 43.5309 264.63 43.6909H264.9V43.9609C264.9 47.6609 264.68 52.8609 264.63 56.5909H264.62ZM264.62 56.5909C264.51 52.9009 264.42 47.5909 264.34 43.9609L264.62 44.2309C255.97 44.3709 243.49 44.4409 234.72 44.4609L235.22 43.9609V56.5909L234.77 56.1509C243.23 56.1509 256.09 56.4409 264.67 56.5909H264.62Z" fill="#E5E5E5"/>
<path d="M619.72 248.95L625.61 239.46L622.7 237.66C622.284 237.398 621.949 237.025 621.732 236.584C621.514 236.143 621.424 235.65 621.47 235.16C621.522 234.605 621.538 234.047 621.52 233.49C621.507 232.999 621.629 232.514 621.875 232.089C622.12 231.663 622.478 231.314 622.91 231.08L625.91 229.47L620.64 219.61L617.64 221.23C617.205 221.458 616.715 221.561 616.225 221.53C615.734 221.498 615.262 221.332 614.86 221.05C614.406 220.726 613.932 220.432 613.44 220.17C613.007 219.937 612.647 219.589 612.402 219.163C612.156 218.737 612.034 218.251 612.05 217.76L612.15 214.34L600.99 214L600.89 217.43C600.868 217.921 600.711 218.397 600.435 218.805C600.16 219.212 599.778 219.536 599.33 219.74C599.08 219.85 598.84 219.98 598.6 220.11L597.88 220.51C597.464 220.768 596.984 220.904 596.495 220.904C596.006 220.904 595.526 220.768 595.11 220.51L592.18 218.7L586.29 228.19L589.21 230C589.624 230.264 589.958 230.637 590.175 231.078C590.392 231.518 590.484 232.011 590.44 232.5C590.39 233.052 590.37 233.606 590.38 234.16C590.393 234.65 590.271 235.133 590.028 235.559C589.785 235.984 589.429 236.333 589 236.57L586 238.18L591.28 248.03L594.28 246.41C594.713 246.182 595.202 246.078 595.69 246.11C596.179 246.142 596.65 246.308 597.05 246.59C597.502 246.908 597.973 247.199 598.46 247.46C598.895 247.692 599.256 248.041 599.505 248.466C599.754 248.891 599.88 249.377 599.87 249.87L599.76 253.3L610.92 253.65L611.03 250.22C611.048 249.73 611.203 249.255 611.477 248.849C611.751 248.443 612.133 248.121 612.58 247.92L613.32 247.54L614.04 247.14C614.457 246.88 614.939 246.743 615.43 246.743C615.921 246.743 616.403 246.88 616.82 247.14L619.72 248.95ZM610.27 241.95C608.674 242.804 606.861 243.166 605.06 242.99C603.258 242.814 601.55 242.107 600.15 240.96C598.75 239.813 597.722 238.276 597.196 236.544C596.67 234.812 596.669 232.963 597.194 231.231C597.718 229.499 598.745 227.961 600.144 226.812C601.542 225.664 603.25 224.956 605.052 224.778C606.853 224.6 608.666 224.96 610.263 225.813C611.859 226.666 613.167 227.974 614.02 229.57C615.15 231.704 615.391 234.198 614.688 236.508C613.985 238.819 612.397 240.757 610.27 241.9V241.95Z" fill="#E5E5E5"/>
<path d="M33.67 162.97L39.56 153.46L36.65 151.65C36.2322 151.392 35.8954 151.022 35.6779 150.581C35.4605 150.141 35.3711 149.649 35.42 149.16C35.42 148.6 35.48 148.05 35.47 147.49C35.4546 147 35.5754 146.515 35.819 146.09C36.0626 145.664 36.4195 145.315 36.85 145.08L39.85 143.46L34.57 133.62L31.57 135.23C31.1378 135.462 30.6489 135.569 30.1592 135.537C29.6695 135.505 29.1985 135.336 28.8 135.05C28.3423 134.732 27.8683 134.438 27.38 134.17C26.9466 133.937 26.5862 133.588 26.3391 133.163C26.0919 132.738 25.9676 132.252 25.98 131.76L26.09 128.35L14.93 128L14.82 131.46C14.8011 131.947 14.6483 132.419 14.3784 132.825C14.1085 133.231 13.7319 133.554 13.29 133.76L12.55 134.13L11.84 134.54C11.424 134.798 10.9444 134.934 10.455 134.934C9.96565 134.934 9.486 134.798 9.07 134.54L6.14 132.72L0.25 142.22L3.16 144.02C3.57774 144.281 3.9143 144.653 4.13166 145.095C4.34901 145.536 4.43849 146.03 4.39 146.52C4.35989 147.076 4.35989 147.634 4.39 148.19C4.40491 148.68 4.28267 149.164 4.03708 149.588C3.79148 150.012 3.43228 150.359 3 150.59L0 152.21L5.28 162.05L8.28 160.44C8.71224 160.208 9.20106 160.101 9.6908 160.133C10.1805 160.165 10.6515 160.334 11.05 160.62C11.51 160.93 11.98 161.22 12.47 161.49C12.9034 161.723 13.2638 162.071 13.5109 162.497C13.7581 162.922 13.8824 163.408 13.87 163.9L13.77 167.32L24.93 167.67L25.04 164.24C25.0596 163.751 25.2149 163.276 25.4886 162.87C25.7624 162.464 26.1437 162.142 26.59 161.94L27.33 161.57L28.04 161.16C28.4598 160.903 28.9426 160.767 29.435 160.767C29.9274 160.767 30.4102 160.903 30.83 161.16L33.67 162.97ZM24.22 155.92C22.6251 156.775 20.8126 157.138 19.0115 156.963C17.2104 156.788 15.5017 156.082 14.1014 154.936C12.7011 153.79 11.6721 152.254 11.1445 150.523C10.617 148.792 10.6145 146.944 11.1374 145.211C11.6603 143.479 12.6852 141.941 14.0824 140.791C15.4796 139.641 17.1864 138.931 18.987 138.751C20.7876 138.571 22.6011 138.929 24.1983 139.78C25.7955 140.63 27.1045 141.935 27.96 143.53C28.5295 144.589 28.8845 145.749 29.0048 146.946C29.125 148.142 29.008 149.35 28.6606 150.501C28.3132 151.652 27.7421 152.723 26.9802 153.653C26.2182 154.583 25.2802 155.353 24.22 155.92Z" fill="#E5E5E5"/>
<path d="M274.69 66.32L270.78 59.55L268.7 60.74C268.402 60.9127 268.061 60.9985 267.716 60.9879C267.372 60.9773 267.037 60.8707 266.75 60.68C266.429 60.4625 266.095 60.2654 265.75 60.09C265.449 59.9318 265.197 59.6946 265.021 59.4039C264.845 59.1132 264.751 58.78 264.75 58.44V56H256.93V58.4C256.929 58.7399 256.835 59.0732 256.659 59.3639C256.483 59.6546 256.231 59.8918 255.93 60.05C255.586 60.2279 255.252 60.4248 254.93 60.64C254.643 60.8307 254.308 60.9373 253.964 60.9479C253.619 60.9585 253.278 60.8727 252.98 60.7L250.91 59.51L247 66.28L249.08 67.48C249.378 67.6546 249.621 67.9092 249.782 68.215C249.943 68.5208 250.015 68.8654 249.99 69.21C249.99 69.4 249.99 69.59 249.99 69.78C249.99 69.97 249.99 70.17 249.99 70.36C250.015 70.7021 249.944 71.0444 249.785 71.3483C249.626 71.6523 249.385 71.9057 249.09 72.08L247 73.29L250.91 80.06L252.99 78.86C253.296 78.681 253.646 78.5926 254 78.6049C254.354 78.6173 254.697 78.7301 254.99 78.93C255.313 79.1439 255.647 79.3409 255.99 79.52C256.292 79.6773 256.544 79.9143 256.721 80.2052C256.897 80.4961 256.99 80.8298 256.99 81.17V83.56H264.81V81.17C264.808 80.8294 264.9 80.4947 265.076 80.2034C265.253 79.9121 265.507 79.6755 265.81 79.52C266.16 79.34 266.49 79.14 266.81 78.93C267.097 78.7399 267.431 78.6329 267.775 78.6205C268.119 78.6081 268.46 78.691 268.76 78.86L270.84 80.06L274.75 73.29L272.67 72.08C272.374 71.9053 272.133 71.6521 271.972 71.3485C271.812 71.0449 271.738 70.7028 271.76 70.36C271.76 70.17 271.76 69.98 271.76 69.78C271.76 69.58 271.76 69.4 271.76 69.21C271.735 68.8654 271.807 68.5208 271.968 68.215C272.129 67.9092 272.372 67.6546 272.67 67.48L274.69 66.32ZM267.21 69.82C267.21 71.0878 266.834 72.3271 266.13 73.3812C265.425 74.4353 264.424 75.2569 263.253 75.7421C262.082 76.2272 260.793 76.3542 259.549 76.1068C258.306 75.8595 257.164 75.249 256.267 74.3526C255.371 73.4561 254.76 72.3139 254.513 71.0705C254.266 69.8271 254.393 68.5383 254.878 67.367C255.363 66.1957 256.185 65.1946 257.239 64.4903C258.293 63.7859 259.532 63.41 260.8 63.41C262.5 63.41 264.13 64.0853 265.333 65.2874C266.535 66.4896 267.21 68.12 267.21 69.82Z" fill="#E5E5E5"/>
<path d="M56.737 242.761V215.557L139.098 104.743H181.527L100.913 215.557L81.1958 209.816H218.714V242.761H56.737ZM150.829 279.449V242.761L152.077 209.816V177.121H190.262V279.449H150.829Z" fill="#E5E5E5"/>
<path d="M504.388 281.444C492.242 281.444 480.179 279.864 468.199 276.702C456.219 273.374 446.07 268.716 437.75 262.726L453.474 231.778C460.129 236.603 467.866 240.43 476.685 243.258C485.503 246.087 494.405 247.501 503.39 247.501C513.54 247.501 521.526 245.505 527.35 241.511C533.173 237.518 536.085 232.027 536.085 225.039C536.085 218.384 533.506 213.142 528.348 209.316C523.19 205.489 514.871 203.575 503.39 203.575H484.921V176.87L533.589 121.713L538.082 136.189H446.486V103.743H568.78V129.949L520.361 185.106L499.896 173.376H511.626C533.09 173.376 549.313 178.201 560.294 187.852C571.276 197.502 576.766 209.898 576.766 225.039C576.766 234.856 574.187 244.09 569.03 252.742C563.872 261.228 555.968 268.133 545.319 273.458C534.671 278.782 521.027 281.444 504.388 281.444Z" fill="#E5E5E5"/>
<path d="M305.1 87.1191H349.36C357.409 87.1191 365.379 88.7045 372.815 91.7846C380.251 94.8647 387.007 99.3793 392.699 105.071C398.39 110.762 402.905 117.518 405.985 124.954C409.065 132.391 410.65 140.36 410.65 148.409V290.939H243.81V148.399C243.813 132.146 250.271 116.559 261.765 105.067C273.259 93.5751 288.847 87.1191 305.1 87.1191Z" fill="url(#paint0_radial_90_29016)"/>
<path d="M621 291H25V294H621V291Z" fill="#D4D4D4"/>
<path d="M261.13 184.699H252.47V209.879H261.13V184.699Z" fill="white"/>
<path d="M274.5 194.93H256.4V199.65H274.5V194.93Z" fill="#E5E5E5"/>
<path d="M256.4 199.65L254.83 200.44V195.72L256.4 194.93V199.65Z" fill="#E5E5E5"/>
<path d="M254.83 200.44H257.04L258.76 199.65H256.4L254.83 200.44Z" fill="#E5E5E5"/>
<path d="M327.23 155.581C341.136 155.581 352.41 144.307 352.41 130.401C352.41 116.494 341.136 105.221 327.23 105.221C313.323 105.221 302.05 116.494 302.05 130.401C302.05 144.307 313.323 155.581 327.23 155.581Z" fill="white"/>
<path d="M410.81 200.339L243.81 158.359V172.799L410.81 214.779V200.339Z" fill="#E5E5E5"/>
<path d="M410.81 240.32L243.81 250.76V264.79L410.81 254.34V240.32Z" fill="#E5E5E5"/>
<path d="M250.163 170.035C249.744 169.927 249.371 169.759 249.043 169.532C248.722 169.3 248.463 169.023 248.264 168.702C248.066 168.38 247.935 168.03 247.873 167.649C247.816 167.271 247.841 166.877 247.946 166.468C248.051 166.06 248.22 165.703 248.453 165.399C248.691 165.096 248.975 164.852 249.304 164.667C249.638 164.482 250.001 164.369 250.393 164.327C250.786 164.279 251.195 164.31 251.619 164.419C252.09 164.54 252.492 164.733 252.827 164.995C253.169 165.254 253.428 165.575 253.606 165.957L252.607 166.494C252.475 166.234 252.309 166.023 252.108 165.861C251.908 165.694 251.674 165.575 251.405 165.506C251.151 165.441 250.908 165.422 250.674 165.45C250.441 165.478 250.227 165.55 250.031 165.665C249.836 165.78 249.667 165.933 249.525 166.122C249.387 166.313 249.285 166.538 249.219 166.796C249.152 167.055 249.133 167.301 249.161 167.534C249.194 167.769 249.268 167.984 249.383 168.179C249.499 168.375 249.652 168.541 249.842 168.678C250.033 168.816 250.255 168.917 250.509 168.982C250.778 169.052 251.04 169.064 251.294 169.019C251.549 168.969 251.798 168.86 252.041 168.69L252.656 169.643C252.316 169.892 251.933 170.05 251.507 170.117C251.087 170.185 250.639 170.158 250.163 170.035Z" fill="white"/>
<path d="M253.288 170.714L254.688 165.282L255.945 165.606L254.809 170.013L257.532 170.715L257.268 171.74L253.288 170.714Z" fill="white"/>
<path d="M260.487 172.644C260.058 172.535 259.677 172.364 259.346 172.132C259.019 171.901 258.753 171.625 258.549 171.303C258.349 170.983 258.217 170.633 258.154 170.254C258.095 169.876 258.117 169.486 258.219 169.082C258.321 168.679 258.488 168.325 258.719 168.021C258.955 167.717 259.24 167.473 259.573 167.288C259.906 167.102 260.271 166.986 260.668 166.938C261.065 166.89 261.476 166.919 261.9 167.027C262.329 167.135 262.704 167.304 263.026 167.534C263.353 167.765 263.616 168.041 263.815 168.361C264.02 168.683 264.154 169.033 264.218 169.412C264.283 169.786 264.263 170.177 264.16 170.586C264.058 170.989 263.888 171.345 263.651 171.653C263.414 171.957 263.13 172.201 262.797 172.386C262.47 172.568 262.108 172.683 261.711 172.731C261.319 172.78 260.911 172.751 260.487 172.644ZM260.75 171.571C260.993 171.633 261.226 171.648 261.448 171.616C261.676 171.586 261.887 171.513 262.082 171.397C262.276 171.281 262.441 171.127 262.578 170.936C262.719 170.747 262.823 170.522 262.888 170.264C262.954 170.005 262.969 169.759 262.935 169.525C262.906 169.292 262.833 169.078 262.717 168.884C262.607 168.691 262.458 168.527 262.273 168.392C262.087 168.257 261.872 168.158 261.629 168.097C261.386 168.035 261.151 168.02 260.923 168.05C260.701 168.082 260.492 168.156 260.298 168.272C260.103 168.387 259.935 168.54 259.794 168.73C259.657 168.921 259.557 169.146 259.491 169.404C259.427 169.658 259.409 169.903 259.437 170.141C259.471 170.376 259.543 170.589 259.654 170.782C259.77 170.977 259.921 171.141 260.107 171.277C260.293 171.412 260.507 171.51 260.75 171.571Z" fill="white"/>
<path d="M266.184 174.088C265.749 173.978 265.348 173.816 264.978 173.601C264.61 173.382 264.328 173.148 264.132 172.9L264.798 172.062C264.989 172.286 265.228 172.493 265.516 172.681C265.811 172.866 266.121 172.999 266.447 173.082C266.695 173.144 266.9 173.172 267.061 173.163C267.23 173.15 267.361 173.109 267.456 173.04C267.55 172.97 267.612 172.879 267.641 172.765C267.677 172.62 267.649 172.492 267.556 172.38C267.465 172.264 267.333 172.156 267.16 172.057C266.988 171.953 266.794 171.849 266.578 171.745C266.369 171.637 266.16 171.518 265.951 171.388C265.747 171.26 265.566 171.115 265.409 170.954C265.251 170.793 265.137 170.605 265.065 170.388C264.998 170.174 265.002 169.921 265.075 169.632C265.153 169.322 265.307 169.061 265.537 168.849C265.773 168.634 266.078 168.494 266.452 168.429C266.833 168.36 267.279 168.39 267.791 168.52C268.132 168.606 268.457 168.733 268.767 168.899C269.079 169.06 269.341 169.253 269.554 169.478L268.924 170.333C268.708 170.125 268.481 169.955 268.245 169.823C268.01 169.687 267.771 169.588 267.528 169.526C267.285 169.465 267.078 169.443 266.909 169.46C266.739 169.478 266.609 169.525 266.519 169.601C266.429 169.672 266.369 169.767 266.339 169.886C266.304 170.025 266.332 170.153 266.424 170.27C266.516 170.382 266.649 170.487 266.822 170.586C266.995 170.684 267.187 170.788 267.396 170.896C267.61 171.005 267.82 171.121 268.025 171.245C268.236 171.37 268.42 171.512 268.577 171.673C268.734 171.834 268.846 172.022 268.913 172.237C268.985 172.453 268.985 172.703 268.913 172.988C268.836 173.293 268.68 173.55 268.445 173.761C268.21 173.971 267.903 174.11 267.522 174.179C267.147 174.249 266.701 174.219 266.184 174.088Z" fill="white"/>
<path d="M271.359 171.836L273.975 172.51L273.723 173.488L271.107 172.814L271.359 171.836ZM270.877 174.095L273.833 174.857L273.573 175.866L269.367 174.782L270.767 169.35L274.872 170.408L274.612 171.417L271.757 170.681L270.877 174.095Z" fill="white"/>
<path d="M283.743 178.526C283.324 178.418 282.951 178.25 282.623 178.022C282.302 177.79 282.043 177.514 281.844 177.192C281.646 176.871 281.515 176.52 281.453 176.14C281.396 175.761 281.421 175.367 281.526 174.958C281.631 174.55 281.8 174.193 282.033 173.889C282.271 173.586 282.555 173.342 282.884 173.157C283.218 172.973 283.581 172.859 283.973 172.817C284.366 172.769 284.775 172.8 285.199 172.909C285.67 173.031 286.073 173.223 286.407 173.486C286.749 173.745 287.008 174.065 287.186 174.448L286.187 174.985C286.055 174.724 285.889 174.513 285.688 174.351C285.488 174.184 285.254 174.066 284.985 173.996C284.731 173.931 284.488 173.912 284.255 173.94C284.021 173.968 283.807 174.04 283.612 174.155C283.416 174.271 283.247 174.423 283.105 174.612C282.967 174.803 282.865 175.028 282.799 175.286C282.732 175.545 282.713 175.791 282.741 176.025C282.774 176.259 282.848 176.474 282.964 176.67C283.079 176.865 283.232 177.031 283.423 177.169C283.613 177.306 283.835 177.407 284.089 177.473C284.358 177.542 284.62 177.554 284.874 177.509C285.13 177.46 285.378 177.35 285.621 177.181L286.236 178.134C285.896 178.382 285.513 178.54 285.087 178.607C284.667 178.675 284.219 178.648 283.743 178.526Z" fill="white"/>
<path d="M286.854 179.213L288.227 173.784L289.484 174.102L288.369 178.508L291.091 179.196L290.832 180.22L286.854 179.213Z" fill="white"/>
<path d="M294.067 181.134C293.638 181.025 293.257 180.855 292.926 180.622C292.599 180.391 292.333 180.115 292.129 179.793C291.929 179.473 291.797 179.124 291.734 178.744C291.675 178.367 291.697 177.976 291.799 177.573C291.901 177.169 292.068 176.815 292.299 176.511C292.535 176.208 292.82 175.963 293.153 175.778C293.486 175.593 293.851 175.476 294.248 175.428C294.646 175.38 295.056 175.41 295.48 175.517C295.909 175.625 296.285 175.795 296.606 176.025C296.933 176.256 297.196 176.531 297.395 176.851C297.6 177.173 297.734 177.523 297.798 177.902C297.863 178.276 297.843 178.668 297.74 179.076C297.638 179.479 297.468 179.835 297.231 180.144C296.994 180.447 296.71 180.691 296.377 180.877C296.05 181.058 295.688 181.173 295.291 181.221C294.899 181.27 294.491 181.241 294.067 181.134ZM294.33 180.062C294.573 180.123 294.806 180.138 295.028 180.106C295.256 180.076 295.467 180.003 295.662 179.887C295.856 179.771 296.021 179.618 296.158 179.427C296.299 179.237 296.403 179.013 296.468 178.754C296.534 178.496 296.549 178.249 296.515 178.015C296.486 177.782 296.413 177.568 296.297 177.374C296.187 177.181 296.039 177.017 295.853 176.882C295.667 176.747 295.452 176.649 295.209 176.587C294.966 176.526 294.731 176.51 294.503 176.54C294.281 176.572 294.072 176.646 293.878 176.762C293.683 176.878 293.515 177.03 293.374 177.22C293.238 177.411 293.137 177.636 293.071 177.895C293.007 178.148 292.989 178.394 293.017 178.632C293.051 178.866 293.123 179.08 293.234 179.273C293.35 179.467 293.501 179.632 293.687 179.767C293.873 179.902 294.087 180 294.33 180.062Z" fill="white"/>
<path d="M299.744 182.578C299.31 182.468 298.908 182.306 298.539 182.092C298.171 181.872 297.889 181.638 297.693 181.391L298.359 180.552C298.55 180.777 298.789 180.983 299.077 181.171C299.371 181.356 299.681 181.489 300.007 181.572C300.255 181.635 300.46 181.662 300.622 181.653C300.79 181.641 300.922 181.6 301.016 181.53C301.111 181.461 301.172 181.369 301.201 181.255C301.238 181.11 301.21 180.982 301.117 180.871C301.025 180.754 300.893 180.646 300.72 180.547C300.548 180.444 300.355 180.339 300.139 180.235C299.93 180.127 299.721 180.008 299.511 179.879C299.307 179.75 299.127 179.605 298.969 179.444C298.812 179.283 298.697 179.095 298.626 178.879C298.559 178.664 298.562 178.412 298.635 178.122C298.714 177.812 298.868 177.551 299.098 177.339C299.334 177.124 299.639 176.984 300.013 176.919C300.393 176.85 300.839 176.881 301.351 177.01C301.692 177.097 302.018 177.223 302.328 177.389C302.639 177.551 302.901 177.744 303.114 177.968L302.485 178.824C302.268 178.615 302.042 178.445 301.805 178.313C301.57 178.177 301.331 178.078 301.088 178.016C300.845 177.955 300.639 177.933 300.47 177.951C300.3 177.968 300.17 178.015 300.079 178.091C299.99 178.162 299.93 178.257 299.9 178.376C299.864 178.515 299.893 178.644 299.984 178.76C300.077 178.872 300.21 178.977 300.383 179.076C300.556 179.175 300.747 179.278 300.956 179.386C301.171 179.495 301.381 179.612 301.586 179.735C301.796 179.86 301.98 180.003 302.138 180.163C302.295 180.324 302.407 180.512 302.474 180.727C302.545 180.943 302.545 181.194 302.473 181.478C302.396 181.783 302.24 182.041 302.006 182.251C301.771 182.461 301.463 182.6 301.083 182.669C300.707 182.739 300.261 182.709 299.744 182.578Z" fill="white"/>
<path d="M304.92 180.334L307.533 180.996L307.286 181.973L304.673 181.311L304.92 180.334ZM304.448 182.591L307.403 183.339L307.147 184.347L302.944 183.284L304.318 177.855L308.42 178.893L308.165 179.901L305.311 179.179L304.448 182.591Z" fill="white"/>
<path d="M317.298 187.013C316.879 186.907 316.506 186.741 316.178 186.515C315.857 186.285 315.596 186.01 315.397 185.69C315.197 185.37 315.066 185.02 315.002 184.641C314.944 184.263 314.966 183.87 315.069 183.461C315.173 183.053 315.34 182.696 315.571 182.392C315.807 182.088 316.089 181.844 316.417 181.657C316.75 181.472 317.112 181.357 317.503 181.313C317.895 181.263 318.303 181.292 318.727 181.4C319.197 181.519 319.6 181.709 319.936 181.97C320.278 182.227 320.538 182.546 320.717 182.927L319.722 183.467C319.59 183.208 319.423 182.998 319.221 182.837C319.021 182.671 318.787 182.554 318.518 182.486C318.265 182.421 318.022 182.404 317.789 182.433C317.556 182.462 317.342 182.535 317.148 182.65C316.953 182.766 316.785 182.919 316.644 183.109C316.508 183.3 316.407 183.525 316.341 183.783C316.276 184.042 316.258 184.287 316.287 184.52C316.321 184.755 316.396 184.969 316.512 185.163C316.628 185.358 316.781 185.523 316.972 185.659C317.163 185.796 317.386 185.896 317.639 185.96C317.908 186.028 318.169 186.039 318.423 185.993C318.678 185.942 318.926 185.832 319.167 185.662L319.785 186.61C319.447 186.86 319.065 187.02 318.641 187.088C318.221 187.158 317.774 187.133 317.298 187.013Z" fill="white"/>
<path d="M320.423 187.704L321.797 182.275L323.054 182.593L321.939 186.998L324.661 187.687L324.402 188.71L320.423 187.704Z" fill="white"/>
<path d="M327.627 189.634C327.198 189.525 326.818 189.355 326.486 189.122C326.159 188.891 325.893 188.615 325.689 188.293C325.489 187.973 325.358 187.624 325.294 187.244C325.236 186.867 325.257 186.476 325.359 186.073C325.461 185.669 325.628 185.315 325.859 185.011C326.095 184.708 326.38 184.463 326.713 184.278C327.046 184.093 327.411 183.976 327.808 183.928C328.206 183.88 328.616 183.91 329.04 184.017C329.469 184.125 329.845 184.295 330.166 184.525C330.493 184.756 330.756 185.031 330.955 185.351C331.16 185.673 331.294 186.023 331.358 186.402C331.423 186.776 331.404 187.168 331.3 187.576C331.198 187.979 331.028 188.335 330.791 188.644C330.554 188.947 330.27 189.191 329.937 189.377C329.61 189.558 329.248 189.673 328.851 189.721C328.459 189.77 328.051 189.741 327.627 189.634ZM327.89 188.562C328.133 188.623 328.366 188.638 328.589 188.606C328.816 188.576 329.027 188.503 329.222 188.387C329.416 188.271 329.581 188.118 329.718 187.927C329.859 187.737 329.963 187.513 330.028 187.254C330.094 186.996 330.109 186.749 330.075 186.515C330.046 186.282 329.973 186.068 329.858 185.874C329.747 185.681 329.599 185.517 329.413 185.382C329.227 185.247 329.012 185.149 328.769 185.087C328.526 185.026 328.291 185.01 328.063 185.04C327.841 185.072 327.632 185.146 327.438 185.262C327.243 185.378 327.076 185.53 326.934 185.72C326.798 185.911 326.697 186.136 326.631 186.395C326.567 186.648 326.549 186.894 326.577 187.132C326.611 187.366 326.684 187.58 326.794 187.773C326.91 187.967 327.061 188.132 327.247 188.267C327.433 188.402 327.647 188.5 327.89 188.562Z" fill="white"/>
<path d="M333.344 191.078C332.91 190.968 332.508 190.806 332.138 190.592C331.77 190.372 331.488 190.138 331.292 189.891L331.958 189.052C332.149 189.277 332.389 189.483 332.677 189.671C332.971 189.856 333.281 189.989 333.607 190.072C333.855 190.135 334.06 190.162 334.222 190.153C334.39 190.141 334.521 190.1 334.616 190.03C334.71 189.961 334.772 189.869 334.801 189.755C334.838 189.61 334.809 189.482 334.717 189.371C334.625 189.254 334.493 189.146 334.32 189.047C334.148 188.944 333.954 188.839 333.739 188.735C333.529 188.627 333.32 188.508 333.111 188.379C332.907 188.25 332.726 188.105 332.569 187.944C332.412 187.783 332.297 187.595 332.225 187.379C332.159 187.164 332.162 186.912 332.235 186.622C332.314 186.312 332.468 186.051 332.697 185.839C332.933 185.624 333.238 185.484 333.612 185.419C333.993 185.35 334.439 185.381 334.951 185.51C335.292 185.597 335.618 185.723 335.928 185.889C336.239 186.051 336.501 186.244 336.714 186.468L336.085 187.324C335.868 187.115 335.641 186.945 335.405 186.813C335.17 186.677 334.931 186.578 334.688 186.516C334.445 186.455 334.239 186.433 334.069 186.451C333.9 186.468 333.77 186.515 333.679 186.591C333.589 186.662 333.53 186.757 333.499 186.876C333.464 187.015 333.492 187.144 333.584 187.26C333.677 187.372 333.809 187.477 333.982 187.576C334.156 187.675 334.347 187.778 334.556 187.886C334.77 187.995 334.98 188.112 335.186 188.235C335.396 188.36 335.58 188.503 335.737 188.663C335.895 188.824 336.007 189.012 336.073 189.227C336.145 189.443 336.145 189.694 336.073 189.978C335.996 190.283 335.84 190.541 335.605 190.751C335.37 190.961 335.063 191.1 334.682 191.169C334.307 191.239 333.861 191.209 333.344 191.078Z" fill="white"/>
<path d="M338.5 188.834L341.114 189.496L340.866 190.473L338.253 189.811L338.5 188.834ZM338.028 191.091L340.983 191.839L340.728 192.847L336.524 191.784L337.898 186.355L342 187.393L341.745 188.401L338.891 187.679L338.028 191.091Z" fill="white"/>
<path d="M350.883 195.516C350.464 195.408 350.091 195.24 349.763 195.012C349.443 194.78 349.183 194.504 348.984 194.182C348.786 193.861 348.655 193.51 348.593 193.13C348.537 192.751 348.561 192.357 348.666 191.949C348.772 191.54 348.941 191.184 349.173 190.879C349.411 190.577 349.695 190.333 350.024 190.147C350.359 189.963 350.722 189.85 351.113 189.807C351.506 189.759 351.915 189.79 352.339 189.9C352.81 190.021 353.213 190.213 353.548 190.476C353.889 190.735 354.149 191.056 354.326 191.438L353.327 191.975C353.195 191.715 353.029 191.504 352.828 191.341C352.628 191.174 352.394 191.056 352.125 190.986C351.872 190.921 351.628 190.902 351.395 190.931C351.161 190.959 350.947 191.03 350.752 191.146C350.557 191.261 350.388 191.413 350.245 191.603C350.108 191.793 350.005 192.018 349.939 192.277C349.872 192.535 349.853 192.781 349.881 193.015C349.914 193.25 349.989 193.465 350.104 193.66C350.219 193.855 350.372 194.021 350.563 194.159C350.753 194.296 350.976 194.398 351.229 194.463C351.498 194.532 351.76 194.545 352.014 194.5C352.27 194.45 352.519 194.34 352.761 194.171L353.376 195.124C353.036 195.373 352.653 195.531 352.228 195.597C351.807 195.666 351.359 195.638 350.883 195.516Z" fill="white"/>
<path d="M354.014 196.204L355.387 190.775L356.644 191.093L355.529 195.498L358.251 196.187L357.992 197.21L354.014 196.204Z" fill="white"/>
<path d="M361.232 198.135C360.802 198.025 360.422 197.852 360.091 197.618C359.764 197.385 359.5 197.107 359.296 196.784C359.097 196.462 358.967 196.112 358.905 195.732C358.848 195.353 358.872 194.962 358.976 194.558C359.08 194.155 359.248 193.801 359.481 193.497C359.719 193.194 360.005 192.95 360.34 192.766C360.674 192.582 361.04 192.467 361.438 192.42C361.836 192.374 362.248 192.406 362.672 192.515C363.101 192.626 363.476 192.797 363.797 193.028C364.123 193.261 364.386 193.539 364.584 193.86C364.788 194.183 364.921 194.535 364.983 194.915C365.046 195.29 365.025 195.681 364.92 196.09C364.816 196.494 364.644 196.849 364.405 197.157C364.167 197.46 363.881 197.704 363.546 197.888C363.218 198.068 362.855 198.181 362.457 198.228C362.064 198.275 361.656 198.245 361.232 198.135ZM361.5 197.062C361.743 197.125 361.976 197.141 362.199 197.11C362.427 197.081 362.639 197.008 362.834 196.893C363.03 196.778 363.196 196.625 363.333 196.434C363.476 196.245 363.581 196.021 363.647 195.762C363.714 195.503 363.731 195.257 363.697 195.022C363.669 194.788 363.598 194.574 363.482 194.379C363.372 194.185 363.225 194.02 363.039 193.884C362.853 193.748 362.639 193.648 362.396 193.586C362.153 193.523 361.917 193.507 361.689 193.536C361.466 193.567 361.256 193.64 361.061 193.755C360.866 193.87 360.697 194.022 360.555 194.212C360.417 194.403 360.315 194.627 360.248 194.886C360.183 195.14 360.164 195.386 360.191 195.624C360.224 195.859 360.295 196.073 360.406 196.267C360.521 196.462 360.671 196.628 360.857 196.764C361.042 196.9 361.257 197 361.5 197.062Z" fill="white"/>
<path d="M366.914 199.566C366.48 199.456 366.078 199.294 365.709 199.08C365.341 198.86 365.059 198.627 364.863 198.379L365.529 197.541C365.72 197.765 365.959 197.971 366.247 198.16C366.541 198.344 366.851 198.478 367.177 198.56C367.425 198.623 367.63 198.65 367.792 198.641C367.96 198.629 368.091 198.588 368.186 198.518C368.281 198.449 368.342 198.357 368.371 198.243C368.408 198.099 368.38 197.97 368.287 197.859C368.195 197.742 368.063 197.635 367.89 197.536C367.718 197.432 367.525 197.328 367.309 197.224C367.1 197.116 366.89 196.997 366.681 196.867C366.477 196.738 366.297 196.593 366.139 196.433C365.982 196.272 365.867 196.083 365.795 195.867C365.729 195.652 365.732 195.4 365.805 195.11C365.884 194.8 366.038 194.539 366.267 194.328C366.504 194.112 366.809 193.972 367.183 193.907C367.563 193.839 368.009 193.869 368.521 193.998C368.862 194.085 369.188 194.211 369.498 194.378C369.809 194.539 370.071 194.732 370.284 194.956L369.655 195.812C369.438 195.603 369.212 195.433 368.975 195.302C368.74 195.165 368.501 195.066 368.258 195.005C368.015 194.943 367.809 194.921 367.639 194.939C367.47 194.957 367.34 195.003 367.249 195.079C367.16 195.15 367.1 195.245 367.07 195.364C367.034 195.504 367.062 195.632 367.154 195.749C367.247 195.86 367.38 195.965 367.553 196.064C367.726 196.163 367.917 196.266 368.126 196.374C368.341 196.483 368.551 196.6 368.756 196.723C368.966 196.848 369.15 196.991 369.308 197.152C369.465 197.313 369.577 197.5 369.644 197.715C369.715 197.932 369.715 198.182 369.643 198.466C369.566 198.771 369.41 199.029 369.176 199.239C368.941 199.449 368.633 199.589 368.253 199.658C367.877 199.728 367.431 199.697 366.914 199.566Z" fill="white"/>
<path d="M372.07 197.323L374.683 197.984L374.436 198.961L371.822 198.3L372.07 197.323ZM371.598 199.58L374.552 200.327L374.297 201.336L370.094 200.272L371.468 194.843L375.57 195.881L375.315 196.889L372.461 196.167L371.598 199.58Z" fill="white"/>
<path d="M384.488 204.013C384.069 203.907 383.696 203.741 383.368 203.515C383.047 203.285 382.786 203.01 382.587 202.69C382.387 202.37 382.255 202.02 382.192 201.641C382.133 201.263 382.156 200.87 382.259 200.461C382.363 200.053 382.53 199.696 382.761 199.392C382.997 199.088 383.279 198.844 383.607 198.657C383.94 198.472 384.302 198.357 384.693 198.313C385.085 198.263 385.493 198.292 385.917 198.4C386.387 198.519 386.79 198.709 387.126 198.97C387.468 199.227 387.728 199.546 387.907 199.927L386.912 200.467C386.78 200.208 386.613 199.998 386.411 199.837C386.211 199.671 385.977 199.554 385.708 199.486C385.455 199.421 385.212 199.404 384.979 199.433C384.746 199.462 384.532 199.535 384.338 199.65C384.143 199.766 383.975 199.919 383.834 200.109C383.698 200.3 383.597 200.525 383.531 200.783C383.466 201.042 383.448 201.287 383.477 201.52C383.511 201.755 383.586 201.969 383.702 202.163C383.818 202.358 383.971 202.523 384.162 202.659C384.353 202.796 384.576 202.896 384.829 202.96C385.098 203.028 385.359 203.039 385.613 202.993C385.868 202.942 386.116 202.832 386.357 202.662L386.975 203.61C386.637 203.86 386.255 204.02 385.831 204.088C385.411 204.158 384.964 204.133 384.488 204.013Z" fill="white"/>
<path d="M387.584 204.704L388.957 199.275L390.214 199.593L389.099 203.998L391.821 204.687L391.562 205.71L387.584 204.704Z" fill="white"/>
<path d="M394.787 206.624C394.358 206.515 393.977 206.345 393.645 206.112C393.319 205.881 393.053 205.605 392.848 205.284C392.649 204.964 392.517 204.614 392.454 204.235C392.395 203.857 392.417 203.466 392.519 203.063C392.621 202.66 392.788 202.306 393.019 202.001C393.255 201.698 393.54 201.453 393.873 201.268C394.206 201.083 394.571 200.966 394.968 200.918C395.365 200.87 395.776 200.9 396.2 201.007C396.629 201.116 397.004 201.285 397.326 201.515C397.652 201.746 397.915 202.022 398.115 202.342C398.32 202.663 398.454 203.013 398.518 203.392C398.582 203.767 398.563 204.158 398.46 204.566C398.358 204.969 398.188 205.325 397.95 205.634C397.714 205.937 397.429 206.181 397.096 206.367C396.77 206.548 396.408 206.663 396.011 206.711C395.619 206.76 395.211 206.731 394.787 206.624ZM395.05 205.552C395.293 205.613 395.526 205.628 395.748 205.597C395.976 205.566 396.187 205.493 396.381 205.377C396.576 205.261 396.741 205.108 396.877 204.917C397.019 204.727 397.122 204.503 397.188 204.244C397.253 203.986 397.269 203.739 397.235 203.505C397.206 203.272 397.133 203.059 397.017 202.864C396.907 202.671 396.758 202.507 396.572 202.372C396.386 202.237 396.172 202.139 395.929 202.077C395.686 202.016 395.451 202 395.223 202.031C395 202.062 394.792 202.136 394.597 202.252C394.403 202.368 394.235 202.521 394.094 202.71C393.957 202.902 393.856 203.126 393.791 203.385C393.727 203.638 393.709 203.884 393.736 204.122C393.771 204.356 393.843 204.57 393.954 204.763C394.07 204.957 394.221 205.122 394.407 205.257C394.592 205.392 394.807 205.49 395.05 205.552Z" fill="white"/>
<path d="M400.474 208.057C400.039 207.947 399.638 207.785 399.268 207.57C398.9 207.35 398.618 207.117 398.422 206.869L399.088 206.031C399.279 206.255 399.518 206.462 399.806 206.65C400.101 206.834 400.411 206.968 400.737 207.05C400.985 207.113 401.19 207.14 401.351 207.132C401.52 207.119 401.651 207.078 401.746 207.009C401.84 206.939 401.902 206.847 401.931 206.734C401.967 206.589 401.939 206.461 401.846 206.349C401.755 206.233 401.623 206.125 401.45 206.026C401.278 205.922 401.084 205.818 400.868 205.714C400.659 205.606 400.45 205.487 400.241 205.357C400.037 205.228 399.856 205.084 399.699 204.923C399.541 204.762 399.427 204.573 399.355 204.357C399.288 204.142 399.292 203.89 399.365 203.6C399.443 203.29 399.597 203.029 399.827 202.818C400.063 202.603 400.368 202.462 400.742 202.398C401.123 202.329 401.569 202.359 402.081 202.489C402.422 202.575 402.748 202.701 403.057 202.868C403.369 203.029 403.631 203.222 403.844 203.446L403.214 204.302C402.998 204.093 402.771 203.923 402.535 203.792C402.3 203.655 402.061 203.556 401.818 203.495C401.575 203.433 401.369 203.412 401.199 203.429C401.03 203.447 400.899 203.494 400.809 203.57C400.719 203.641 400.659 203.735 400.629 203.854C400.594 203.994 400.622 204.122 400.714 204.239C400.806 204.35 400.939 204.455 401.112 204.554C401.285 204.653 401.477 204.756 401.686 204.864C401.9 204.974 402.11 205.09 402.315 205.214C402.526 205.338 402.71 205.481 402.867 205.642C403.025 205.803 403.137 205.991 403.203 206.206C403.275 206.422 403.275 206.672 403.203 206.957C403.126 207.262 402.97 207.519 402.735 207.729C402.5 207.94 402.193 208.079 401.812 208.148C401.437 208.218 400.991 208.187 400.474 208.057Z" fill="white"/>
<path d="M405.67 205.817L408.285 206.491L408.033 207.469L405.418 206.795L405.67 205.817ZM405.187 208.076L408.144 208.838L407.884 209.846L403.678 208.762L405.078 203.33L409.183 204.388L408.923 205.397L406.067 204.661L405.187 208.076Z" fill="white"/>
<path d="M248.834 260.545C248.403 260.568 247.997 260.521 247.617 260.403C247.242 260.279 246.911 260.094 246.625 259.848C246.339 259.602 246.11 259.307 245.936 258.964C245.768 258.621 245.672 258.239 245.649 257.818C245.626 257.397 245.68 257.007 245.81 256.647C245.945 256.288 246.141 255.97 246.399 255.694C246.661 255.418 246.973 255.201 247.333 255.042C247.692 254.878 248.09 254.785 248.527 254.761C249.012 254.734 249.453 254.796 249.851 254.945C250.254 255.089 250.598 255.316 250.882 255.626L250.093 256.438C249.889 256.23 249.667 256.079 249.427 255.986C249.187 255.886 248.928 255.845 248.651 255.86C248.39 255.874 248.153 255.929 247.939 256.027C247.725 256.124 247.543 256.256 247.392 256.425C247.241 256.593 247.126 256.789 247.047 257.013C246.974 257.236 246.945 257.48 246.959 257.746C246.974 258.013 247.03 258.253 247.127 258.466C247.229 258.68 247.365 258.862 247.533 259.013C247.702 259.164 247.897 259.276 248.12 259.35C248.343 259.423 248.585 259.453 248.846 259.438C249.123 259.423 249.376 259.356 249.604 259.237C249.833 259.112 250.036 258.933 250.216 258.699L251.089 259.42C250.84 259.76 250.523 260.025 250.138 260.217C249.759 260.409 249.324 260.518 248.834 260.545Z" fill="white"/>
<path d="M252.023 260.274L251.718 254.683L253.013 254.612L253.26 259.149L256.064 258.996L256.121 260.051L252.023 260.274Z" fill="white"/>
<path d="M259.474 259.962C259.032 259.986 258.618 259.937 258.232 259.814C257.851 259.69 257.515 259.506 257.224 259.26C256.939 259.014 256.709 258.719 256.535 258.376C256.367 258.033 256.271 257.653 256.249 257.238C256.226 256.822 256.28 256.435 256.41 256.075C256.545 255.715 256.744 255.397 257.007 255.121C257.269 254.845 257.583 254.625 257.948 254.461C258.313 254.297 258.714 254.203 259.151 254.179C259.593 254.155 260.001 254.205 260.377 254.329C260.757 254.452 261.09 254.637 261.376 254.883C261.667 255.129 261.9 255.424 262.073 255.767C262.247 256.104 262.345 256.484 262.368 256.904C262.39 257.32 262.334 257.71 262.199 258.075C262.064 258.435 261.865 258.753 261.602 259.029C261.345 259.3 261.033 259.517 260.668 259.681C260.309 259.845 259.911 259.939 259.474 259.962ZM259.406 258.86C259.656 258.847 259.883 258.792 260.086 258.695C260.294 258.598 260.474 258.466 260.625 258.297C260.776 258.129 260.888 257.933 260.962 257.71C261.04 257.487 261.072 257.242 261.058 256.976C261.043 256.709 260.985 256.47 260.882 256.256C260.785 256.042 260.652 255.86 260.484 255.709C260.321 255.558 260.13 255.445 259.913 255.372C259.695 255.298 259.461 255.268 259.211 255.282C258.96 255.295 258.731 255.351 258.523 255.447C258.32 255.544 258.143 255.676 257.992 255.845C257.841 256.013 257.726 256.209 257.647 256.433C257.574 256.656 257.544 256.9 257.559 257.166C257.573 257.427 257.629 257.667 257.726 257.886C257.829 258.1 257.962 258.282 258.125 258.433C258.293 258.585 258.486 258.697 258.704 258.77C258.922 258.844 259.156 258.874 259.406 258.86Z" fill="white"/>
<path d="M265.345 259.639C264.898 259.664 264.466 259.628 264.05 259.533C263.633 259.433 263.294 259.294 263.033 259.116L263.42 258.118C263.668 258.275 263.958 258.401 264.289 258.495C264.625 258.583 264.961 258.619 265.297 258.6C265.552 258.586 265.756 258.551 265.908 258.495C266.065 258.433 266.178 258.355 266.248 258.26C266.317 258.165 266.349 258.059 266.342 257.942C266.334 257.793 266.269 257.679 266.147 257.6C266.025 257.516 265.867 257.453 265.672 257.41C265.477 257.362 265.262 257.32 265.025 257.285C264.793 257.244 264.558 257.193 264.319 257.131C264.086 257.069 263.871 256.985 263.672 256.878C263.474 256.771 263.309 256.625 263.176 256.44C263.048 256.255 262.976 256.013 262.96 255.715C262.943 255.396 263.012 255.101 263.168 254.83C263.33 254.555 263.579 254.33 263.917 254.157C264.259 253.978 264.694 253.874 265.222 253.845C265.573 253.826 265.922 253.85 266.267 253.916C266.612 253.978 266.92 254.084 267.19 254.235L266.844 255.239C266.575 255.104 266.308 255.009 266.043 254.954C265.778 254.894 265.521 254.871 265.27 254.884C265.02 254.898 264.817 254.938 264.66 255.006C264.503 255.073 264.393 255.156 264.329 255.256C264.265 255.35 264.236 255.459 264.243 255.581C264.251 255.725 264.316 255.839 264.438 255.923C264.559 256.002 264.718 256.063 264.912 256.105C265.107 256.148 265.32 256.19 265.552 256.231C265.789 256.271 266.024 256.32 266.257 256.377C266.495 256.433 266.713 256.515 266.911 256.621C267.109 256.728 267.272 256.874 267.4 257.059C267.533 257.245 267.607 257.483 267.623 257.776C267.64 258.091 267.568 258.383 267.407 258.653C267.245 258.924 266.993 259.149 266.65 259.328C266.313 259.506 265.878 259.61 265.345 259.639Z" fill="white"/>
<path d="M269.601 255.96L272.293 255.813L272.348 256.82L269.656 256.967L269.601 255.96ZM269.823 258.256L272.866 258.09L272.923 259.128L268.593 259.364L268.288 253.772L272.514 253.542L272.571 254.581L269.631 254.741L269.823 258.256Z" fill="white"/>
<path d="M283.428 258.659C282.996 258.681 282.59 258.631 282.21 258.511C281.834 258.386 281.504 258.199 281.219 257.951C280.934 257.704 280.705 257.408 280.533 257.063C280.366 256.719 280.272 256.336 280.251 255.915C280.23 255.493 280.285 255.103 280.417 254.743C280.554 254.384 280.752 254.066 281.011 253.791C281.275 253.516 281.588 253.3 281.949 253.143C282.31 252.981 282.709 252.889 283.146 252.867C283.632 252.842 284.073 252.906 284.471 253.057C284.874 253.203 285.217 253.431 285.5 253.743L284.706 254.553C284.503 254.344 284.282 254.192 284.042 254.097C283.802 253.997 283.543 253.954 283.266 253.967C283.004 253.981 282.766 254.035 282.552 254.131C282.338 254.228 282.154 254.36 282.002 254.528C281.85 254.696 281.735 254.891 281.655 255.115C281.58 255.338 281.55 255.582 281.563 255.849C281.577 256.116 281.631 256.356 281.728 256.571C281.829 256.785 281.964 256.968 282.132 257.12C282.3 257.272 282.495 257.385 282.718 257.459C282.941 257.534 283.183 257.565 283.445 257.551C283.722 257.538 283.975 257.471 284.205 257.353C284.434 257.229 284.639 257.051 284.82 256.817L285.69 257.543C285.44 257.882 285.121 258.147 284.735 258.337C284.354 258.527 283.919 258.635 283.428 258.659Z" fill="white"/>
<path d="M286.604 258.377L286.324 252.777L287.62 252.712L287.847 257.256L290.655 257.116L290.708 258.172L286.604 258.377Z" fill="white"/>
<path d="M294.054 258.072C293.612 258.096 293.198 258.046 292.812 257.923C292.431 257.8 292.096 257.615 291.804 257.369C291.519 257.123 291.289 256.828 291.115 256.485C290.947 256.142 290.852 255.763 290.829 255.347C290.806 254.932 290.86 254.544 290.99 254.185C291.125 253.825 291.324 253.507 291.587 253.231C291.85 252.955 292.163 252.735 292.528 252.571C292.893 252.406 293.294 252.313 293.731 252.289C294.173 252.265 294.581 252.314 294.957 252.438C295.337 252.562 295.671 252.746 295.956 252.993C296.248 253.238 296.48 253.533 296.653 253.876C296.827 254.214 296.925 254.593 296.948 255.014C296.97 255.429 296.914 255.819 296.779 256.185C296.644 256.544 296.445 256.862 296.182 257.138C295.925 257.409 295.613 257.626 295.248 257.79C294.889 257.954 294.491 258.048 294.054 258.072ZM293.986 256.97C294.236 256.956 294.463 256.901 294.666 256.805C294.874 256.708 295.054 256.575 295.205 256.407C295.356 256.238 295.468 256.042 295.542 255.819C295.62 255.596 295.652 255.351 295.638 255.085C295.623 254.819 295.565 254.579 295.462 254.366C295.365 254.152 295.232 253.969 295.064 253.818C294.901 253.667 294.71 253.555 294.493 253.481C294.275 253.407 294.041 253.377 293.791 253.391C293.541 253.405 293.311 253.46 293.103 253.557C292.9 253.653 292.723 253.786 292.572 253.954C292.421 254.123 292.306 254.319 292.227 254.542C292.154 254.765 292.124 255.01 292.139 255.276C292.153 255.537 292.209 255.777 292.306 255.996C292.409 256.209 292.542 256.392 292.705 256.543C292.873 256.694 293.066 256.806 293.284 256.88C293.502 256.953 293.736 256.983 293.986 256.97Z" fill="white"/>
<path d="M299.906 257.76C299.458 257.785 299.027 257.749 298.61 257.655C298.193 257.554 297.855 257.415 297.594 257.237L297.98 256.239C298.229 256.396 298.519 256.522 298.85 256.616C299.186 256.704 299.522 256.74 299.857 256.721C300.113 256.707 300.317 256.672 300.468 256.616C300.625 256.554 300.738 256.476 300.808 256.381C300.878 256.286 300.909 256.181 300.903 256.063C300.895 255.914 300.83 255.8 300.708 255.722C300.586 255.637 300.428 255.574 300.233 255.531C300.038 255.483 299.822 255.441 299.585 255.406C299.353 255.365 299.118 255.314 298.88 255.252C298.647 255.19 298.431 255.106 298.233 254.999C298.035 254.892 297.869 254.747 297.736 254.562C297.609 254.376 297.537 254.134 297.521 253.836C297.503 253.517 297.573 253.222 297.729 252.952C297.89 252.676 298.14 252.451 298.477 252.278C298.82 252.099 299.255 251.995 299.782 251.966C300.134 251.947 300.482 251.971 300.828 252.038C301.173 252.099 301.48 252.205 301.75 252.356L301.405 253.36C301.135 253.225 300.869 253.13 300.604 253.075C300.339 253.015 300.081 252.992 299.831 253.005C299.581 253.019 299.377 253.059 299.221 253.127C299.064 253.194 298.954 253.277 298.89 253.377C298.825 253.471 298.797 253.58 298.803 253.702C298.811 253.846 298.876 253.96 298.998 254.044C299.12 254.123 299.278 254.184 299.473 254.227C299.667 254.269 299.881 254.311 300.113 254.352C300.35 254.392 300.585 254.441 300.818 254.498C301.056 254.554 301.274 254.636 301.472 254.743C301.67 254.849 301.833 254.995 301.96 255.181C302.093 255.366 302.168 255.605 302.184 255.897C302.201 256.212 302.129 256.504 301.967 256.775C301.806 257.045 301.554 257.27 301.211 257.449C300.873 257.627 300.438 257.731 299.906 257.76Z" fill="white"/>
<path d="M304.181 254.079L306.873 253.933L306.928 254.939L304.236 255.086L304.181 254.079ZM304.403 256.375L307.446 256.209L307.503 257.247L303.173 257.483L302.868 251.892L307.094 251.661L307.151 252.7L304.211 252.86L304.403 256.375Z" fill="white"/>
<path d="M317.998 256.778C317.566 256.8 317.16 256.751 316.78 256.631C316.405 256.505 316.075 256.318 315.79 256.071C315.504 255.823 315.276 255.527 315.104 255.183C314.937 254.838 314.843 254.455 314.822 254.034C314.8 253.612 314.856 253.222 314.988 252.863C315.125 252.503 315.323 252.186 315.582 251.911C315.846 251.635 316.158 251.419 316.52 251.262C316.88 251.1 317.279 251.008 317.717 250.986C318.202 250.962 318.644 251.025 319.042 251.176C319.444 251.322 319.787 251.551 320.07 251.863L319.277 252.672C319.074 252.463 318.852 252.311 318.612 252.216C318.372 252.116 318.113 252.073 317.836 252.087C317.575 252.1 317.337 252.154 317.122 252.251C316.908 252.347 316.725 252.479 316.573 252.647C316.421 252.815 316.305 253.011 316.225 253.234C316.151 253.457 316.12 253.702 316.134 253.968C316.147 254.235 316.202 254.475 316.298 254.69C316.4 254.904 316.534 255.087 316.702 255.239C316.87 255.391 317.066 255.504 317.289 255.579C317.512 255.653 317.754 255.684 318.015 255.671C318.292 255.657 318.546 255.591 318.775 255.472C319.004 255.348 319.209 255.17 319.39 254.936L320.26 255.663C320.01 256.001 319.692 256.266 319.306 256.456C318.925 256.646 318.489 256.754 317.998 256.778Z" fill="white"/>
<path d="M321.173 256.505L320.868 250.913L322.162 250.842L322.41 255.38L325.214 255.227L325.271 256.281L321.173 256.505Z" fill="white"/>
<path d="M328.624 256.191C328.182 256.215 327.768 256.165 327.382 256.042C327.002 255.919 326.666 255.734 326.375 255.488C326.089 255.242 325.859 254.947 325.686 254.604C325.517 254.261 325.422 253.882 325.399 253.466C325.377 253.051 325.43 252.663 325.56 252.304C325.695 251.944 325.894 251.626 326.157 251.35C326.42 251.074 326.734 250.854 327.099 250.69C327.464 250.526 327.864 250.432 328.301 250.408C328.743 250.384 329.152 250.434 329.527 250.557C329.908 250.681 330.241 250.866 330.527 251.112C330.818 251.358 331.05 251.652 331.224 251.995C331.397 252.333 331.495 252.712 331.518 253.133C331.541 253.548 331.485 253.938 331.35 254.304C331.214 254.664 331.015 254.982 330.753 255.258C330.495 255.528 330.184 255.745 329.819 255.909C329.459 256.073 329.061 256.167 328.624 256.191ZM328.556 255.089C328.807 255.075 329.033 255.02 329.236 254.924C329.445 254.827 329.624 254.694 329.775 254.526C329.926 254.357 330.039 254.162 330.112 253.939C330.191 253.715 330.223 253.47 330.208 253.204C330.194 252.938 330.135 252.698 330.033 252.485C329.936 252.271 329.803 252.089 329.634 251.938C329.471 251.786 329.281 251.674 329.063 251.6C328.845 251.527 328.611 251.497 328.361 251.51C328.111 251.524 327.882 251.579 327.673 251.676C327.47 251.772 327.293 251.905 327.142 252.073C326.991 252.242 326.876 252.438 326.797 252.661C326.724 252.884 326.695 253.129 326.709 253.395C326.724 253.656 326.779 253.896 326.877 254.115C326.979 254.328 327.112 254.511 327.275 254.662C327.444 254.813 327.637 254.925 327.854 254.999C328.072 255.073 328.306 255.103 328.556 255.089Z" fill="white"/>
<path d="M334.516 255.87C334.068 255.894 333.636 255.859 333.22 255.764C332.803 255.664 332.464 255.525 332.204 255.347L332.59 254.348C332.839 254.505 333.129 254.631 333.46 254.725C333.796 254.814 334.132 254.849 334.467 254.831C334.723 254.817 334.926 254.782 335.078 254.725C335.235 254.663 335.348 254.585 335.418 254.49C335.488 254.396 335.519 254.29 335.513 254.173C335.505 254.024 335.44 253.91 335.318 253.831C335.196 253.747 335.037 253.683 334.843 253.64C334.648 253.592 334.432 253.551 334.195 253.516C333.963 253.475 333.728 253.423 333.49 253.362C333.257 253.3 333.041 253.215 332.843 253.109C332.645 253.002 332.479 252.856 332.346 252.671C332.219 252.486 332.147 252.244 332.131 251.946C332.113 251.626 332.183 251.331 332.339 251.061C332.5 250.785 332.749 250.561 333.087 250.387C333.43 250.208 333.865 250.104 334.392 250.076C334.744 250.057 335.092 250.08 335.438 250.147C335.783 250.208 336.09 250.314 336.36 250.465L336.014 251.469C335.745 251.335 335.478 251.24 335.214 251.185C334.949 251.124 334.691 251.101 334.441 251.115C334.19 251.128 333.987 251.169 333.83 251.236C333.674 251.303 333.564 251.387 333.5 251.486C333.435 251.581 333.406 251.689 333.413 251.812C333.421 251.955 333.486 252.069 333.608 252.153C333.73 252.232 333.888 252.293 334.083 252.336C334.277 252.379 334.491 252.421 334.722 252.461C334.96 252.502 335.195 252.55 335.427 252.607C335.666 252.664 335.884 252.745 336.082 252.852C336.28 252.959 336.443 253.105 336.57 253.29C336.703 253.475 336.778 253.714 336.794 254.007C336.811 254.321 336.739 254.613 336.577 254.884C336.416 255.154 336.163 255.379 335.821 255.558C335.483 255.737 335.048 255.841 334.516 255.87Z" fill="white"/>
<path d="M338.761 252.191L341.453 252.044L341.508 253.05L338.816 253.197L338.761 252.191ZM338.982 254.486L342.026 254.32L342.082 255.359L337.753 255.595L337.448 250.003L341.674 249.773L341.73 250.811L338.791 250.971L338.982 254.486Z" fill="white"/>
<path d="M352.578 254.89C352.146 254.911 351.74 254.862 351.36 254.742C350.985 254.616 350.655 254.43 350.37 254.182C350.085 253.934 349.856 253.638 349.684 253.294C349.517 252.949 349.423 252.566 349.402 252.145C349.381 251.724 349.436 251.333 349.568 250.974C349.705 250.614 349.903 250.297 350.162 250.022C350.426 249.747 350.739 249.531 351.1 249.374C351.46 249.211 351.859 249.119 352.297 249.097C352.782 249.073 353.224 249.136 353.622 249.288C354.025 249.433 354.367 249.662 354.65 249.974L353.857 250.784C353.654 250.574 353.432 250.422 353.192 250.328C352.952 250.227 352.693 250.184 352.416 250.198C352.155 250.211 351.917 250.266 351.702 250.362C351.488 250.458 351.305 250.59 351.153 250.758C351.001 250.926 350.885 251.122 350.805 251.345C350.731 251.568 350.7 251.813 350.714 252.08C350.727 252.346 350.782 252.587 350.878 252.801C350.98 253.015 351.114 253.198 351.282 253.35C351.45 253.502 351.646 253.616 351.869 253.69C352.092 253.764 352.334 253.795 352.595 253.782C352.873 253.768 353.126 253.702 353.355 253.584C353.584 253.46 353.789 253.281 353.97 253.048L354.84 253.774C354.59 254.113 354.272 254.377 353.886 254.568C353.505 254.758 353.069 254.865 352.578 254.89Z" fill="white"/>
<path d="M355.773 254.614L355.468 249.022L356.763 248.952L357.01 253.489L359.814 253.336L359.871 254.391L355.773 254.614Z" fill="white"/>
<path d="M363.238 254.307C362.796 254.33 362.382 254.278 361.996 254.153C361.615 254.028 361.28 253.841 360.989 253.594C360.704 253.346 360.476 253.05 360.303 252.706C360.136 252.361 360.042 251.981 360.022 251.565C360.001 251.149 360.056 250.761 360.188 250.402C360.325 250.042 360.526 249.725 360.79 249.449C361.054 249.174 361.37 248.955 361.736 248.793C362.102 248.63 362.504 248.538 362.941 248.516C363.384 248.494 363.792 248.545 364.168 248.671C364.548 248.796 364.881 248.983 365.166 249.231C365.456 249.478 365.688 249.774 365.86 250.118C366.032 250.457 366.129 250.837 366.15 251.259C366.17 251.675 366.112 252.065 365.976 252.43C365.839 252.79 365.638 253.107 365.374 253.383C365.114 253.652 364.802 253.868 364.436 254.031C364.075 254.193 363.676 254.286 363.238 254.307ZM363.175 253.204C363.426 253.191 363.653 253.137 363.857 253.041C364.066 252.945 364.246 252.813 364.398 252.645C364.55 252.477 364.664 252.282 364.738 252.059C364.818 251.836 364.851 251.591 364.838 251.324C364.824 251.058 364.767 250.817 364.665 250.603C364.569 250.389 364.437 250.205 364.269 250.053C364.106 249.901 363.916 249.788 363.698 249.713C363.481 249.638 363.247 249.607 362.996 249.62C362.745 249.632 362.516 249.687 362.306 249.783C362.103 249.878 361.925 250.01 361.773 250.178C361.621 250.346 361.505 250.542 361.425 250.765C361.351 250.988 361.32 251.233 361.334 251.499C361.347 251.761 361.402 252.001 361.498 252.221C361.6 252.435 361.732 252.618 361.894 252.771C362.062 252.923 362.255 253.036 362.473 253.111C362.69 253.185 362.925 253.216 363.175 253.204Z" fill="white"/>
<path d="M369.085 253.979C368.638 254.003 368.206 253.968 367.79 253.873C367.373 253.773 367.034 253.634 366.774 253.456L367.16 252.458C367.409 252.615 367.699 252.741 368.03 252.835C368.366 252.923 368.701 252.958 369.037 252.94C369.292 252.926 369.496 252.891 369.648 252.835C369.805 252.773 369.918 252.694 369.988 252.6C370.057 252.505 370.089 252.399 370.083 252.282C370.074 252.133 370.009 252.019 369.888 251.94C369.766 251.856 369.607 251.793 369.413 251.75C369.218 251.702 369.002 251.66 368.765 251.625C368.533 251.584 368.298 251.533 368.059 251.471C367.826 251.409 367.611 251.325 367.413 251.218C367.215 251.111 367.049 250.965 366.916 250.78C366.789 250.595 366.717 250.353 366.7 250.055C366.683 249.735 366.752 249.441 366.909 249.17C367.07 248.894 367.319 248.67 367.657 248.497C368 248.318 368.435 248.214 368.962 248.185C369.313 248.166 369.662 248.19 370.007 248.256C370.353 248.318 370.66 248.424 370.93 248.575L370.584 249.579C370.315 249.444 370.048 249.349 369.784 249.294C369.518 249.234 369.261 249.21 369.011 249.224C368.76 249.238 368.557 249.278 368.4 249.345C368.244 249.413 368.133 249.496 368.069 249.596C368.005 249.69 367.976 249.798 367.983 249.921C367.991 250.065 368.056 250.179 368.178 250.263C368.3 250.342 368.458 250.402 368.652 250.445C368.847 250.488 369.06 250.53 369.292 250.571C369.529 250.611 369.764 250.66 369.997 250.717C370.235 250.773 370.453 250.855 370.652 250.961C370.85 251.068 371.012 251.214 371.14 251.399C371.273 251.584 371.347 251.823 371.363 252.116C371.381 252.43 371.308 252.723 371.147 252.993C370.985 253.264 370.733 253.489 370.39 253.667C370.053 253.846 369.618 253.95 369.085 253.979Z" fill="white"/>
<path d="M373.341 250.3L376.033 250.153L376.088 251.16L373.396 251.307L373.341 250.3ZM373.562 252.595L376.606 252.429L376.662 253.468L372.333 253.704L372.028 248.112L376.254 247.882L376.31 248.92L373.371 249.081L373.562 252.595Z" fill="white"/>
<path d="M387.184 252.994C386.753 253.017 386.347 252.97 385.966 252.852C385.591 252.728 385.261 252.543 384.975 252.297C384.689 252.051 384.459 251.756 384.286 251.413C384.117 251.07 384.022 250.688 383.999 250.267C383.976 249.846 384.029 249.456 384.159 249.097C384.295 248.737 384.491 248.419 384.748 248.143C385.011 247.867 385.322 247.65 385.682 247.491C386.042 247.328 386.44 247.234 386.877 247.21C387.361 247.184 387.803 247.245 388.201 247.394C388.604 247.538 388.947 247.765 389.231 248.075L388.442 248.887C388.239 248.679 388.017 248.529 387.777 248.435C387.536 248.336 387.278 248.294 387.001 248.309C386.74 248.323 386.502 248.379 386.289 248.476C386.075 248.573 385.893 248.706 385.742 248.874C385.591 249.043 385.476 249.239 385.397 249.462C385.324 249.685 385.294 249.929 385.309 250.196C385.323 250.462 385.379 250.702 385.476 250.916C385.579 251.129 385.714 251.311 385.883 251.462C386.051 251.613 386.247 251.726 386.47 251.799C386.693 251.872 386.935 251.902 387.196 251.888C387.473 251.872 387.725 251.805 387.954 251.686C388.182 251.561 388.386 251.382 388.566 251.148L389.438 251.869C389.19 252.209 388.873 252.474 388.488 252.666C388.109 252.858 387.674 252.967 387.184 252.994Z" fill="white"/>
<path d="M390.343 252.723L390.038 247.132L391.332 247.061L391.58 251.599L394.384 251.446L394.441 252.5L390.343 252.723Z" fill="white"/>
<path d="M397.804 252.412C397.362 252.436 396.948 252.386 396.562 252.263C396.181 252.139 395.846 251.955 395.554 251.709C395.269 251.463 395.039 251.168 394.865 250.825C394.697 250.482 394.602 250.102 394.579 249.687C394.556 249.272 394.61 248.884 394.74 248.525C394.875 248.165 395.074 247.847 395.337 247.571C395.6 247.295 395.913 247.075 396.278 246.91C396.643 246.746 397.044 246.652 397.481 246.629C397.923 246.604 398.331 246.654 398.707 246.778C399.087 246.902 399.421 247.086 399.706 247.332C399.998 247.578 400.23 247.873 400.403 248.216C400.577 248.554 400.675 248.933 400.698 249.353C400.72 249.769 400.664 250.159 400.529 250.524C400.394 250.884 400.195 251.202 399.932 251.478C399.675 251.749 399.363 251.966 398.998 252.13C398.639 252.294 398.241 252.388 397.804 252.412ZM397.736 251.31C397.986 251.296 398.213 251.241 398.416 251.144C398.624 251.048 398.804 250.915 398.955 250.746C399.106 250.578 399.218 250.382 399.292 250.159C399.37 249.936 399.402 249.691 399.388 249.425C399.373 249.159 399.315 248.919 399.212 248.705C399.115 248.492 398.982 248.309 398.814 248.158C398.651 248.007 398.46 247.894 398.243 247.821C398.025 247.747 397.791 247.717 397.541 247.731C397.291 247.745 397.061 247.8 396.853 247.897C396.65 247.993 396.473 248.126 396.322 248.294C396.171 248.463 396.056 248.658 395.977 248.882C395.904 249.105 395.874 249.349 395.889 249.616C395.903 249.877 395.959 250.117 396.056 250.336C396.159 250.549 396.292 250.731 396.455 250.883C396.623 251.034 396.816 251.146 397.034 251.22C397.252 251.293 397.486 251.323 397.736 251.31Z" fill="white"/>
<path d="M403.658 252.101C403.21 252.124 402.778 252.087 402.362 251.99C401.945 251.888 401.606 251.747 401.346 251.567L401.737 250.569C401.986 250.728 402.275 250.855 402.606 250.951C402.942 251.041 403.278 251.078 403.614 251.061C403.87 251.048 404.074 251.014 404.227 250.958C404.384 250.897 404.498 250.819 404.568 250.725C404.638 250.63 404.67 250.524 404.664 250.407C404.657 250.258 404.592 250.143 404.471 250.064C404.349 249.979 404.191 249.915 403.996 249.871C403.801 249.822 403.585 249.779 403.348 249.743C403.116 249.701 402.881 249.649 402.642 249.586C402.409 249.523 402.194 249.437 401.996 249.329C401.798 249.222 401.633 249.075 401.501 248.889C401.374 248.703 401.303 248.461 401.288 248.162C401.272 247.842 401.343 247.547 401.5 247.277C401.663 247.002 401.914 246.778 402.253 246.606C402.597 246.428 403.033 246.326 403.561 246.3C403.913 246.282 404.262 246.308 404.607 246.376C404.952 246.439 405.26 246.546 405.53 246.699L405.179 247.703C404.91 247.566 404.643 247.47 404.378 247.414C404.113 247.352 403.855 247.328 403.605 247.34C403.354 247.353 403.15 247.392 402.993 247.459C402.836 247.526 402.725 247.609 402.661 247.708C402.596 247.802 402.567 247.911 402.573 248.033C402.58 248.177 402.644 248.292 402.766 248.377C402.888 248.456 403.046 248.518 403.241 248.561C403.435 248.605 403.649 248.648 403.881 248.69C404.118 248.731 404.353 248.781 404.586 248.839C404.824 248.897 405.042 248.979 405.24 249.087C405.438 249.195 405.6 249.342 405.727 249.528C405.859 249.714 405.933 249.953 405.948 250.247C405.963 250.561 405.89 250.854 405.727 251.124C405.564 251.394 405.31 251.618 404.966 251.795C404.628 251.973 404.192 252.075 403.658 252.101Z" fill="white"/>
<path d="M407.931 248.419L410.623 248.272L410.678 249.279L407.986 249.426L407.931 248.419ZM408.153 250.715L411.196 250.549L411.253 251.587L406.923 251.823L406.618 246.231L410.844 246.001L410.901 247.04L407.961 247.2L408.153 250.715Z" fill="white"/>
<path d="M323.02 119.25L313.95 134.95C313.523 135.689 313.299 136.527 313.299 137.381C313.299 138.234 313.524 139.072 313.95 139.811C314.377 140.55 314.991 141.163 315.73 141.59C316.469 142.016 317.307 142.24 318.16 142.24H336.29C337.143 142.24 337.981 142.016 338.72 141.59C339.459 141.163 340.073 140.55 340.5 139.811C340.926 139.072 341.151 138.234 341.151 137.381C341.151 136.527 340.927 135.689 340.5 134.95L331.44 119.25C331.014 118.511 330.4 117.897 329.661 117.47C328.922 117.043 328.083 116.818 327.23 116.818C326.376 116.818 325.538 117.043 324.799 117.47C324.06 117.897 323.446 118.511 323.02 119.25Z" stroke="#F97316" stroke-width="1.21" stroke-miterlimit="10"/>
<path d="M329.185 119.957L329.001 133.465H326.872L326.689 119.957H329.185ZM327.937 138.897C327.484 138.897 327.096 138.735 326.772 138.41C326.447 138.086 326.285 137.698 326.285 137.245C326.285 136.792 326.447 136.404 326.772 136.08C327.096 135.756 327.484 135.593 327.937 135.593C328.39 135.593 328.778 135.756 329.102 136.08C329.426 136.404 329.589 136.792 329.589 137.245C329.589 137.545 329.512 137.82 329.359 138.071C329.212 138.322 329.014 138.524 328.763 138.677C328.518 138.823 328.243 138.897 327.937 138.897Z" fill="#EF4444"/>
<path d="M107.81 19.4508C99.1397 19.5908 86.4797 19.9008 77.9197 19.8908H77.4697V19.4408V6.81078V6.30078H77.9697C86.7897 6.30078 99.1697 6.37078 107.86 6.52078H108.14V6.80078C108.14 10.4908 107.92 15.6908 107.86 19.4308L107.81 19.4508ZM107.81 19.4508C107.71 15.7508 107.61 10.4508 107.54 6.82078L107.81 7.09078C99.1697 7.23078 86.6897 7.29078 77.9197 7.31078L78.4197 6.82078L78.3697 19.4508L77.9297 19.0008C86.3797 19.0008 99.2497 19.2908 107.82 19.4508H107.81Z" fill="#E5E5E5"/>
<path d="M543.3 13.13C534.62 13.27 521.97 13.58 513.4 13.58H512.96V13.13L512.9 0.5V0H513.4C522.22 0 534.61 0.0699995 543.3 0.23H543.58V0.5C543.58 4.2 543.37 9.4 543.31 13.13H543.3ZM543.3 13.13C543.2 9.43 543.1 4.13 543.03 0.5L543.3 0.77C534.66 0.91 522.18 0.98 513.4 1L513.9 0.5V13.13L513.37 12.73C521.83 12.73 534.7 13.01 543.27 13.17L543.3 13.13Z" fill="#E5E5E5"/>
<path d="M526.62 29.0597C517.95 29.1997 505.29 29.5097 496.73 29.5097H496.28V29.0597L496.23 16.4297V15.9297H496.73C505.54 15.9297 517.93 15.9997 526.62 16.1597H526.9V16.4297C526.9 20.1297 526.68 25.3297 526.62 29.0597ZM526.62 29.0597C526.52 25.3597 526.42 20.0597 526.35 16.4297L526.62 16.6997C517.98 16.8397 505.5 16.9097 496.73 16.9297L497.23 16.4297L497.17 29.0597L496.73 28.6197C505.18 28.6197 518.05 28.8997 526.62 29.0597Z" fill="#E5E5E5"/>
<defs>
<radialGradient id="paint0_radial_90_29016" cx="0" cy="0" r="1" gradientUnits="userSpaceOnUse" gradientTransform="translate(327.23 189.029) scale(114.77 140.208)">
<stop stop-color="#FED7AA"/>
<stop offset="0.25" stop-color="#FED7AA"/>
<stop offset="0.54" stop-color="#FDBA74"/>
<stop offset="0.86" stop-color="#FB923C"/>
<stop offset="1" stop-color="#F97316"/>
</radialGradient>
</defs>
</svg>
