<svg width="870" height="383" viewBox="0 0 870 383" fill="none" xmlns="http://www.w3.org/2000/svg">
<g clip-path="url(#clip0_1503_7358)">
<path d="M234.129 243.538C222.08 243.538 210.112 241.97 198.228 238.834C186.508 235.533 176.439 230.911 168.021 224.969L183.867 194.267C190.47 199.053 198.063 202.85 206.646 205.656C215.394 208.462 224.225 209.865 233.139 209.865C243.208 209.865 251.131 207.884 256.908 203.923C262.685 199.961 265.574 194.432 265.574 187.334C265.574 182.877 264.419 178.916 262.108 175.449C259.797 171.983 255.67 169.342 249.728 167.526C243.951 165.71 235.78 164.803 225.216 164.803H180.896L189.809 67.2494H295.533V99.437H204.17L224.968 81.1148L218.778 150.69L197.98 132.367H234.624C251.791 132.367 265.574 134.761 275.973 139.548C286.537 144.169 294.213 150.524 299 158.613C303.786 166.701 306.18 175.862 306.18 186.096C306.18 196.33 303.621 205.821 298.504 214.569C293.387 223.153 285.464 230.168 274.735 235.615C264.171 240.897 250.636 243.538 234.129 243.538Z" fill="#E5E5E5"/>
<path d="M637.935 243.538C623.74 243.538 611.03 240.072 599.805 233.139C588.581 226.041 579.75 215.807 573.313 202.437C566.875 189.067 563.656 172.891 563.656 153.908C563.656 134.926 566.875 118.75 573.313 105.379C579.75 92.0091 588.581 81.8576 599.805 74.9249C611.03 67.8271 623.74 64.2782 637.935 64.2782C652.296 64.2782 665.006 67.8271 676.065 74.9249C687.29 81.8576 696.121 92.0091 702.558 105.379C708.996 118.75 712.214 134.926 712.214 153.908C712.214 172.891 708.996 189.067 702.558 202.437C696.121 215.807 687.29 226.041 676.065 233.139C665.006 240.072 652.296 243.538 637.935 243.538ZM637.935 209.618C644.703 209.618 650.563 207.719 655.515 203.923C660.632 200.126 664.593 194.101 667.399 185.848C670.37 177.595 671.856 166.948 671.856 153.908C671.856 140.868 670.37 130.222 667.399 121.968C664.593 113.715 660.632 107.69 655.515 103.894C650.563 100.097 644.703 98.199 637.935 98.199C631.333 98.199 625.473 100.097 620.356 103.894C615.404 107.69 611.442 113.715 608.471 121.968C605.665 130.222 604.262 140.868 604.262 153.908C604.262 166.948 605.665 177.595 608.471 185.848C611.442 194.101 615.404 200.126 620.356 203.923C625.473 207.719 631.333 209.618 637.935 209.618Z" fill="#E5E5E5"/>
<path d="M665.454 329.715C657.301 329.715 647.856 331.699 637.909 333.792C619.754 337.624 599.288 341.946 579.624 335.667C580.507 333.037 580.988 330.288 581.051 327.514C581.014 325.848 580.739 324.196 580.236 322.608C579.122 316.955 576.232 313.621 571.566 312.606C567.571 312.606 562.642 314.98 556.781 319.727C554.732 321.65 552.859 323.751 551.182 326.005C549.606 326.332 548.36 327.854 547.445 330.571C541.819 341.062 536.669 346.312 531.994 346.321C531.419 346.298 530.849 346.207 530.295 346.05C528.243 345.166 527.211 343.332 527.211 340.451V338.739C527.211 332.234 526.499 327.473 525.077 324.456C524.393 323.25 523.472 322.195 522.37 321.354C521.268 320.513 520.007 319.905 518.663 319.564C516.091 319.171 513.492 318.975 510.89 318.98C510.232 314.605 508.922 310.355 507.003 306.369C504.367 301.042 500.779 297.291 496.648 295.497C493.976 294.332 491.004 294.037 488.155 294.655C484.886 295.436 481.861 297.014 479.349 299.248C471.005 306.314 470.149 312.688 469.578 316.914C469.103 320.393 468.912 321.154 466.385 321.711C463.857 322.268 461.588 320.828 457.756 318.259C452.021 314.387 444.261 309.155 430.577 311.465V311.302L429.938 307.225C429.916 307.14 429.878 307.06 429.825 306.991C429.772 306.921 429.705 306.862 429.629 306.818C429.554 306.774 429.47 306.745 429.383 306.733C429.296 306.721 429.208 306.727 429.123 306.749C428.946 306.76 428.78 306.837 428.659 306.966C428.538 307.095 428.47 307.265 428.471 307.442L429.109 311.519L427.574 311.75L426.949 307.673C426.898 307.503 426.783 307.36 426.628 307.274C426.473 307.187 426.291 307.165 426.12 307.211C426.032 307.215 425.946 307.236 425.867 307.272C425.787 307.309 425.716 307.361 425.657 307.425C425.597 307.49 425.551 307.565 425.521 307.647C425.491 307.73 425.477 307.817 425.481 307.904L426.106 311.981L424.435 312.226L423.728 307.633L412.571 309.372C409.617 309.837 406.596 309.151 404.132 307.456C398.918 303.87 392.53 302.411 386.276 303.379L382.607 303.95L382.321 302.088C382.269 301.753 382.151 301.431 381.974 301.141C381.797 300.851 381.564 300.599 381.29 300.399C381.015 300.199 380.704 300.055 380.374 299.975C380.044 299.896 379.701 299.882 379.366 299.934C379.03 299.987 378.708 300.105 378.419 300.282C378.129 300.459 377.877 300.692 377.677 300.966C377.477 301.241 377.333 301.552 377.253 301.882C377.173 302.212 377.159 302.555 377.212 302.89L378.109 308.72L367.727 310.378V310.133L359.682 311.383C359.039 311.484 358.462 311.835 358.078 312.359C357.693 312.884 357.532 313.54 357.63 314.183C357.678 314.503 357.789 314.811 357.957 315.088C358.124 315.365 358.346 315.606 358.607 315.797C358.869 315.988 359.166 316.125 359.481 316.2C359.796 316.275 360.123 316.287 360.443 316.235L368.488 314.984V314.74L378.938 313.109L381.656 330.191L371.192 331.822V331.563L363.147 332.814C362.808 332.822 362.474 332.9 362.167 333.044C361.86 333.187 361.585 333.393 361.361 333.648C361.137 333.902 360.968 334.2 360.865 334.523C360.762 334.846 360.726 335.187 360.761 335.525C360.796 335.862 360.9 336.189 361.067 336.484C361.234 336.779 361.46 337.036 361.732 337.24C362.003 337.443 362.313 337.589 362.643 337.667C362.974 337.744 363.316 337.753 363.65 337.692L371.681 336.442V336.197L382.118 334.567L383.055 340.478C383.192 341.128 383.572 341.701 384.118 342.078C384.664 342.456 385.334 342.611 385.99 342.51C386.646 342.409 387.239 342.06 387.646 341.536C388.053 341.011 388.244 340.351 388.178 339.69L387.866 337.733L391.535 337.162C397.788 336.193 403.433 332.867 407.312 327.867C409.144 325.508 411.808 323.938 414.759 323.478L425.957 321.725L425.25 317.2L426.922 316.941L427.533 320.937C427.584 321.107 427.699 321.25 427.853 321.336C428.008 321.423 428.191 321.445 428.362 321.399C428.77 321.331 429.055 321.032 429.001 320.706L428.389 316.724L429.911 316.479L430.536 320.461C430.587 320.631 430.701 320.776 430.856 320.865C431.01 320.953 431.192 320.979 431.365 320.937C431.543 320.926 431.71 320.846 431.829 320.714C431.949 320.582 432.011 320.408 432.004 320.23L431.379 316.262V316.153C435.954 315.271 440.676 315.523 445.131 316.887C448.711 318.165 452.085 319.96 455.146 322.214C459.101 324.932 462.824 327.378 467.377 326.359C473.234 325.081 473.764 321.1 474.239 317.58C474.769 313.666 475.435 308.788 482.393 302.904C486.728 299.234 490.9 298.215 494.773 299.873C497.858 301.232 500.63 304.181 502.763 308.489C504.678 312.511 505.914 316.823 506.419 321.249L506.283 321.331C506.283 321.589 505.631 322.309 504.326 323.478C498.89 331.414 496.173 338.181 496.173 343.78C496.458 346.987 497.776 348.604 500.113 348.604H500.576C501.744 348.604 503.293 347.789 505.44 346.145C510.305 340.6 512.742 333.47 512.751 324.755C512.751 323.858 513.458 323.396 514.885 323.396H515.85C517.97 323.396 519.601 325.004 520.742 328.22C520.996 328.22 521.476 333.353 522.182 343.617C523.827 348.292 526.735 350.629 530.934 350.629H532.497C534.76 350.67 536.999 350.164 539.024 349.154C541.05 348.144 542.801 346.659 544.129 344.827C545.284 343.617 546.317 342.448 547.214 341.321C547.394 341.948 547.621 342.562 547.893 343.155C548.866 345.511 550.544 347.509 552.698 348.874C554.851 350.239 557.374 350.904 559.92 350.779C563.036 350.644 566.064 349.708 568.712 348.061C569.065 348.061 571.335 346.783 574.732 343.386C575.737 342.356 576.618 341.211 577.355 339.975C598.446 347.014 619.889 342.503 638.874 338.494C648.576 336.442 657.722 334.512 665.441 334.512H870.014V329.742L665.454 329.715ZM501.744 343.712C501.744 343.427 501.744 343.155 501.744 342.897V343.712ZM505.902 334.879C504.19 339.726 502.795 342.376 501.717 342.829C501.697 342.486 501.652 342.146 501.581 341.81C501.735 340.395 501.985 338.992 502.328 337.611C504.394 332.175 505.78 329.28 506.487 328.927C506.487 328.152 506.636 328.057 506.949 328.655C506.783 330.757 506.433 332.839 505.902 334.879ZM571.879 338.806C568.481 343.228 564.563 345.601 560.124 345.927H559.852C559.069 345.935 558.291 345.801 557.555 345.533C555.788 345.052 554.238 343.981 553.163 342.498C552.088 341.015 551.552 339.209 551.644 337.38C551.689 336.726 551.78 336.077 551.916 335.436C553.818 329.946 556.536 325.869 560.069 323.206C559.734 324.391 559.489 325.599 559.336 326.821C559.75 328.6 560.53 330.273 561.628 331.733C562.725 333.193 564.115 334.408 565.709 335.3C567.651 336.624 569.775 337.658 572.014 338.372L571.879 338.806ZM575.643 328.18C575.249 332.121 574.855 334.091 574.433 334.091C574.108 334.092 573.783 334.051 573.468 333.969C567.942 331.93 564.957 329.416 564.513 326.427C564.55 325.107 564.929 323.819 565.614 322.69C568.105 319.347 570.008 317.675 571.321 317.675C571.773 317.689 572.209 317.841 572.572 318.11C574.619 320.049 575.643 323.26 575.643 327.745V328.18ZM326.035 283.199L324.961 284.123L347.343 303.257L326.035 283.199ZM337.395 346.267L341.051 345.696L341.363 347.653C341.47 348.331 341.841 348.938 342.395 349.342C342.949 349.746 343.641 349.913 344.319 349.807C344.997 349.701 345.604 349.33 346.008 348.775C346.412 348.221 346.579 347.529 346.473 346.851L340.629 309.304C340.496 308.65 340.115 308.073 339.567 307.692C339.019 307.311 338.345 307.156 337.685 307.26C337.026 307.363 336.431 307.716 336.026 308.246C335.62 308.776 335.434 309.442 335.506 310.106L335.805 311.968L332.136 312.538C325.882 313.504 320.235 316.831 316.359 321.833C314.523 324.188 311.861 325.757 308.912 326.223L297.715 327.962L298.435 332.569L296.763 332.827L296.138 328.75C296.09 328.578 295.977 328.431 295.821 328.342C295.666 328.253 295.482 328.229 295.309 328.275C294.902 328.343 294.616 328.655 294.671 328.968L295.296 333.045L293.76 333.289L293.135 329.212C293.072 329.051 292.955 328.917 292.805 328.831C292.655 328.745 292.479 328.712 292.308 328.739C292.137 328.766 291.981 328.851 291.864 328.979C291.748 329.107 291.678 329.271 291.667 329.443L292.292 333.52V333.615C282.929 334.635 273.267 336.333 256.729 342.38C247.04 345.954 243.031 352.015 239.824 356.894C236.807 361.46 235.19 363.688 231.168 363.688C227.811 363.688 224.305 361.664 221.302 358.008C218.605 354.597 216.643 350.664 215.54 346.457C215.255 344.949 214.833 342.313 214.072 338.643C212.36 329.928 208.886 325.57 203.649 325.57C199.872 325.57 196.619 328.035 193.892 332.963C193.343 334.418 192.661 335.819 191.854 337.149C191.776 336.677 191.731 336.2 191.718 335.722C191.813 332.406 191.867 330.49 191.867 329.973C191.867 328.406 194.382 325.086 199.41 320.012C209.484 306.731 215.101 296.711 216.26 289.953C218.028 285.082 218.885 279.927 218.788 274.747C218.788 269.121 217.157 266.308 213.923 266.308H213.61C211.754 266.398 209.978 267.095 208.555 268.292C205.081 272.59 202.045 277.224 199.491 282.126C196.973 288.096 195.052 292.349 193.729 294.886C192.824 298.37 191.577 301.757 190.006 304.996C188.139 312.077 186.924 319.314 186.377 326.617C183.977 328.34 181.426 329.841 178.754 331.101C171.216 333.955 165.423 335.382 161.373 335.382H161.169C158.913 335.382 157.786 335.205 157.786 334.866C158.411 330.286 158.723 327.813 158.723 327.487C158.686 325.821 158.411 324.169 157.908 322.581C156.794 316.928 153.899 313.594 149.224 312.579C145.238 312.579 140.314 314.953 134.453 319.7C132.221 321.815 130.208 324.151 128.446 326.671H128.161C128.176 326.829 128.176 326.989 128.161 327.147C127.943 327.459 127.753 327.786 127.549 328.098C126.032 328.962 124.321 329.429 122.576 329.457C119.64 329.756 115.903 329.756 111.596 329.756H0.000244141V334.526H111.5C115.975 334.674 120.455 334.479 124.899 333.942C124.548 335.235 124.366 336.569 124.356 337.91C124.375 339.622 124.732 341.313 125.406 342.887C126.08 344.46 127.058 345.886 128.284 347.081C129.51 348.277 130.959 349.219 132.549 349.853C134.139 350.487 135.839 350.802 137.551 350.779C140.663 350.646 143.687 349.71 146.33 348.061C146.692 348.061 148.703 346.503 152.363 343.386C154.076 340.899 155.353 339.649 156.209 339.649C157.513 339.881 158.829 340.04 160.15 340.125C164.417 340.125 170.184 338.92 177.449 336.51C180.459 335.38 183.395 334.064 186.242 332.569C186.283 337.642 186.596 342.709 187.179 347.748C187.179 353.456 188.334 356.296 190.644 356.296H190.794C191.8 356.296 192.384 356.092 192.547 355.684C193.145 355.684 194.055 351.907 195.265 344.365C198.427 335.205 201.018 330.626 203.038 330.626H203.976C205.538 330.626 206.979 332.569 208.338 336.428C209.009 340.352 209.917 344.232 211.056 348.047V348.169C212.351 352.841 214.574 357.204 217.592 360.998C221.519 365.781 226.316 368.404 231.181 368.404C234.067 368.472 236.873 367.448 239.036 365.537C240.875 363.748 242.47 361.724 243.779 359.517C246.768 355.005 250.138 349.868 258.374 346.838C274.545 340.872 283.908 339.296 293.04 338.317V338.494L293.665 342.503C293.712 342.672 293.825 342.815 293.978 342.902C294.13 342.988 294.311 343.011 294.48 342.965C294.657 342.954 294.823 342.877 294.944 342.748C295.065 342.619 295.133 342.449 295.133 342.272L294.507 338.195L296.043 337.964L296.655 341.959C296.705 342.13 296.82 342.274 296.974 342.363C297.128 342.451 297.311 342.477 297.483 342.435C297.661 342.424 297.828 342.344 297.947 342.212C298.067 342.08 298.13 341.906 298.122 341.728L297.511 337.733L299.169 337.475L299.875 342.014L311.073 340.274C314.023 339.809 317.039 340.495 319.498 342.19C324.734 345.798 331.154 347.262 337.436 346.281L337.395 346.267ZM192.696 319.17V318.817C193.281 314.791 194.153 310.813 195.306 306.912C198.812 296.73 201.443 290.288 203.201 287.588C204.045 284.829 205.335 282.226 207.02 279.883C209.737 274.602 211.848 271.956 213.352 271.947H213.474C213.732 273.267 213.837 274.612 213.787 275.956C213.835 279.413 213.264 282.851 212.102 286.107C210.761 293.445 205.733 303.039 197.018 314.889C194.599 318.124 193.104 319.904 192.506 320.203C192.683 320.094 192.737 319.741 192.696 319.17ZM149.482 338.806C146.085 343.228 142.171 345.601 137.741 345.927H137.47C136.686 345.936 135.908 345.802 135.173 345.533C133.406 345.052 131.856 343.981 130.78 342.498C129.705 341.015 129.169 339.209 129.262 337.38C129.306 336.726 129.397 336.077 129.533 335.436C130.101 333.762 130.801 332.135 131.626 330.571C131.942 330.154 132.203 329.697 132.401 329.212C133.756 326.913 135.541 324.897 137.66 323.274C137.343 324.429 137.111 325.605 136.967 326.794C137.381 328.573 138.161 330.246 139.259 331.706C140.356 333.166 141.746 334.381 143.34 335.273C145.282 336.596 147.406 337.631 149.646 338.344L149.482 338.806ZM153.301 328.193C152.907 332.134 152.513 334.105 152.092 334.105C151.766 334.107 151.442 334.066 151.127 333.982C145.6 331.944 142.615 329.43 142.171 326.44C142.209 325.122 142.583 323.836 143.259 322.703C145.759 319.36 147.666 317.689 148.98 317.689C149.431 317.703 149.867 317.855 150.23 318.124C152.268 320.067 153.301 323.274 153.301 327.758V328.193ZM325.6 305.214L330.886 306.247L326.225 303.977L325.6 305.214ZM312.391 305.961L311.983 307.184L328.318 309.155L312.391 305.961ZM327.801 294.206L326.85 295.28L334.623 300.43L327.801 294.206ZM379.672 296.313L385.936 289.749L384.822 289.11L379.672 296.313ZM393.261 293.214L392.717 292.141L382.811 297.413L393.261 293.214ZM385.61 271.689L376.94 293.31L386.915 272.002L385.61 271.689ZM366.585 281.201V287.806L368.053 281.174L366.585 281.201ZM362.4 276.962L361.041 277.152L362.78 288.499L362.4 276.962ZM343.184 286.474L341.92 287.167L346.976 293.962L343.184 286.474ZM374.331 279.584L372.537 290.293L375.663 279.639L374.331 279.584ZM358.024 371.992L359.451 371.896L358.499 360.468L358.024 371.992ZM394.715 368.282L395.843 367.439L374.888 346.811L394.715 368.282ZM377.796 363.879L379.155 363.281L374.589 356.133L377.796 363.879ZM369.085 382.048L370.444 381.871L362.44 353.592L369.085 382.048ZM370.186 365.469L371.545 364.952L369.452 359.951L370.186 365.469ZM336.607 358.348L342.247 351.553L335.561 357.668L336.607 358.348ZM396.128 347.476L396.848 346.294L391.657 344.935L396.128 347.476ZM387.472 350.48L393.845 357.152L394.864 356.146L387.472 350.48ZM410.071 346.403L410.574 345.221L394.43 342.19L410.071 346.403ZM334.623 375.579L344.761 354.624L333.332 375.185L334.623 375.579ZM346.364 368.486L348.892 357.927L345.032 368.336L346.364 368.486ZM328.467 353.537L328.929 354.652L339.189 350.194L328.467 353.537ZM349.53 284.762L351.963 289.613L350.821 284.178L349.53 284.762ZM350.781 267.544L349.422 267.816L359.328 295.565L350.781 267.544ZM354.205 367.303L354.722 360.74L352.778 367.371L354.205 367.303Z" fill="#E5E5E5"/>
<path d="M438.54 250.343C486.948 250.343 526.191 211.101 526.191 162.692C526.191 114.284 486.948 75.0415 438.54 75.0415C390.132 75.0415 350.889 114.284 350.889 162.692C350.889 211.101 390.132 250.343 438.54 250.343Z" fill="url(#paint0_radial_1503_7358)"/>
<path d="M425.182 94.0708C425.182 94.0708 427.234 118.763 388.165 121.847" stroke="white" stroke-width="2.05198" stroke-miterlimit="10"/>
<path d="M448.827 94.0708C448.827 94.0708 446.775 118.763 485.858 121.847" stroke="white" stroke-width="2.05198" stroke-miterlimit="10"/>
<path d="M463.368 130.396C462.473 130.749 461.649 131.26 460.936 131.905C458.899 133.761 457.137 135.898 455.704 138.251C451.396 145.344 449.887 156.433 453.978 164.07C453.978 164.07 461.18 177.442 479.689 174.358C490.044 172.632 498.89 160.564 496.906 149.707C495.303 140.914 486.918 133.399 478.656 131.171C476.906 130.591 475.116 130.137 473.302 129.812C469.994 129.167 466.577 129.368 463.368 130.396Z" fill="white"/>
<path d="M413.74 130.396C414.631 130.749 415.45 131.26 416.159 131.904C418.196 133.764 419.962 135.9 421.405 138.25C425.713 145.344 427.207 156.433 423.131 164.07C423.131 164.07 415.915 177.442 397.42 174.357C387.051 172.631 378.204 160.564 380.188 149.706C381.792 140.914 390.177 133.399 398.439 131.17C400.193 130.59 401.987 130.135 403.807 129.811C407.114 129.167 410.531 129.368 413.74 130.396Z" fill="white"/>
<path d="M390.734 157.822C393.856 157.822 396.387 155.291 396.387 152.169C396.387 149.047 393.856 146.516 390.734 146.516C387.612 146.516 385.081 149.047 385.081 152.169C385.081 155.291 387.612 157.822 390.734 157.822Z" fill="#737373"/>
<path d="M461.683 157.822C464.805 157.822 467.336 155.291 467.336 152.169C467.336 149.047 464.805 146.516 461.683 146.516C458.561 146.516 456.03 149.047 456.03 152.169C456.03 155.291 458.561 157.822 461.683 157.822Z" fill="#737373"/>
<path d="M423.131 169.182C423.131 169.182 414.189 182.323 402.747 182.432" stroke="white" stroke-width="1.03279" stroke-miterlimit="10"/>
<path d="M451.98 169.182C451.98 169.182 460.922 182.323 472.364 182.432" stroke="white" stroke-width="1.03279" stroke-miterlimit="10"/>
<path d="M403.888 208.223H474.552" stroke="white" stroke-width="2.71786" stroke-miterlimit="10"/>
<path d="M486.62 61.3151C482.943 55.8642 480.958 49.4492 480.912 42.8744C480.912 19.5008 506.582 0.557373 538.205 0.557373C569.827 0.557373 595.484 19.5008 595.484 42.8744C595.484 66.248 569.841 85.1779 538.205 85.1779C522.876 85.1779 508.96 80.7342 498.687 73.4775L478.955 78.4919L486.62 61.3151Z" fill="white"/>
<path d="M486.62 61.3089C483.111 56.1434 481.094 50.1108 480.79 43.8738C480.594 37.5987 482.172 31.3955 485.342 25.9767C488.549 20.5959 492.839 15.9404 497.94 12.3059C503.005 8.63892 508.613 5.78692 514.559 3.85334C520.49 1.89395 526.637 0.661906 532.864 0.184239C539.099 -0.233366 545.362 0.085919 551.522 1.13549C553.044 1.44804 554.594 1.66547 556.102 2.05956L560.627 3.2826L565.057 4.83177C566.525 5.37535 567.925 6.08199 569.365 6.69351C575.052 9.34716 580.249 12.9448 584.735 17.3339C589.28 21.7437 592.689 27.1901 594.668 33.2062C596.592 39.2812 596.658 45.7922 594.859 51.9051C592.983 57.9586 589.651 63.4599 585.156 67.9269C580.734 72.3971 575.576 76.0744 569.909 78.7983C564.273 81.5183 558.286 83.4392 552.12 84.5058C545.974 85.5981 539.72 85.9539 533.489 85.5658C527.26 85.1938 521.103 84.0246 515.171 82.0869C509.222 80.1791 503.599 77.3746 498.497 73.7702H498.755L478.983 78.6352H478.684L478.806 78.3634L486.62 61.3089ZM486.62 61.3089L479.159 78.5537L478.983 78.3362L498.687 73.1723H498.823L498.945 73.2539C509.219 80.1086 521.177 84.0102 533.517 84.533C539.667 84.865 545.835 84.4589 551.889 83.3235C557.95 82.2641 563.832 80.3612 569.365 77.6704C574.889 74.9995 579.917 71.4056 584.232 67.0435C588.555 62.7154 591.747 57.3906 593.527 51.5382C595.236 45.6744 595.16 39.4345 593.309 33.6139C591.425 27.802 588.162 22.5331 583.797 18.258C579.441 13.9582 574.386 10.4292 568.849 7.82142C567.49 7.2235 566.131 6.4625 564.636 5.98687L560.301 4.43768L555.857 3.22824C554.376 2.83415 552.84 2.63031 551.346 2.30417C545.281 1.26332 539.115 0.925887 532.973 1.29856C526.818 1.71496 520.735 2.87393 514.858 4.75024C508.986 6.59567 503.439 9.34666 498.415 12.9038C493.364 16.4422 489.086 20.9737 485.845 26.2213C482.628 31.5452 480.975 37.6676 481.075 43.8874C481.287 50.0938 483.206 56.1217 486.62 61.3089Z" fill="#D4D4D4"/>
<path d="M508.743 49.7944V52.9471H495.914V34.4792H508.498V37.632H499.543V42.0757H507.316V44.9838H499.543V49.7944H508.743Z" fill="#D4D4D4"/>
<path d="M511.543 52.9475V34.4797H519.696C520.51 34.4694 521.316 34.651 522.047 35.0096C522.747 35.3422 523.379 35.8031 523.909 36.3686C524.435 36.9441 524.849 37.6122 525.132 38.339C525.425 39.0457 525.577 39.8027 525.58 40.5677C525.593 41.7174 525.282 42.8476 524.683 43.8291C524.119 44.7768 523.267 45.5195 522.251 45.949L526.464 52.8931H522.387L518.623 46.6964H515.089V52.8931L511.543 52.9475ZM515.144 43.6116H519.642C519.96 43.6108 520.272 43.5315 520.552 43.3806C520.834 43.2434 521.084 43.049 521.286 42.8099C521.5 42.5215 521.665 42.2002 521.775 41.8586C521.901 41.4818 521.965 41.0872 521.966 40.69C521.97 40.2823 521.901 39.8773 521.762 39.4941C521.629 39.1459 521.436 38.8239 521.191 38.5429C520.969 38.2821 520.696 38.0693 520.389 37.9177C520.102 37.774 519.786 37.6996 519.465 37.7003H515.13L515.144 43.6116Z" fill="#D4D4D4"/>
<path d="M528.841 52.9473V34.4795H536.995C537.809 34.4723 538.614 34.6537 539.346 35.0094C540.046 35.342 540.677 35.8029 541.208 36.3684C541.725 36.9502 542.139 37.6168 542.431 38.3388C542.773 39.2201 542.91 40.1681 542.83 41.1102C542.75 42.0524 542.455 42.9638 541.969 43.7745C541.407 44.7247 540.554 45.4683 539.536 45.8945L543.749 52.8386H539.672L535.894 46.6419H532.361V52.8386L528.841 52.9473ZM532.429 43.6114H536.927C537.249 43.6106 537.566 43.5313 537.851 43.3804C538.139 43.2176 538.393 43.0008 538.598 42.7417C538.812 42.4533 538.977 42.1321 539.088 41.7905C539.209 41.413 539.269 41.0183 539.264 40.6218C539.269 40.2142 539.2 39.8091 539.06 39.4259C538.932 39.0785 538.744 38.7564 538.503 38.4747C538.281 38.2139 538.009 38.0012 537.702 37.8496C537.414 37.7073 537.098 37.6329 536.777 37.6322H532.429V43.6114Z" fill="#D4D4D4"/>
<path d="M554.009 53.077C552.741 53.0916 551.487 52.8174 550.34 52.2752C549.263 51.7689 548.297 51.0528 547.5 50.1689C545.912 48.3925 545.027 46.0969 545.013 43.714C545.009 42.4977 545.245 41.2925 545.706 40.1672C546.151 39.0619 546.796 38.0483 547.609 37.1775C548.42 36.3084 549.395 35.6066 550.476 35.112C551.611 34.5962 552.845 34.3364 554.091 34.351C555.356 34.3354 556.608 34.6146 557.746 35.1663C558.819 35.6923 559.779 36.4215 560.573 37.3134C561.354 38.2033 561.97 39.2248 562.394 40.3302C563.04 41.9956 563.205 43.8093 562.868 45.5637C562.532 47.3181 561.708 48.9423 560.491 50.2504C559.678 51.1142 558.704 51.8112 557.624 52.3024C556.492 52.8255 555.257 53.09 554.009 53.077ZM548.655 43.714C548.654 44.4986 548.778 45.2784 549.022 46.0242C549.251 46.7406 549.611 47.4086 550.082 47.9946C550.543 48.5598 551.117 49.0227 551.767 49.3535C552.472 49.7042 553.25 49.8813 554.037 49.8699C554.839 49.8864 555.632 49.7044 556.347 49.3399C556.996 49.0081 557.57 48.5454 558.032 47.981C558.491 47.3793 558.845 46.7038 559.078 45.9834C559.568 44.5007 559.568 42.9 559.078 41.4174C558.839 40.7026 558.475 40.0356 558.005 39.4469C557.545 38.8803 556.971 38.4172 556.32 38.088C555.619 37.7421 554.845 37.5697 554.064 37.5852C553.262 37.572 552.469 37.7539 551.754 38.1152C551.1 38.4401 550.524 38.9039 550.068 39.4741C549.603 40.06 549.253 40.7286 549.036 41.4446C548.792 42.1768 548.664 42.9424 548.655 43.714Z" fill="#D4D4D4"/>
<path d="M565.79 52.9475V34.4797H573.944C574.758 34.4694 575.563 34.651 576.295 35.0096C576.995 35.3422 577.626 35.8031 578.156 36.3686C578.682 36.9441 579.097 37.6122 579.379 38.339C579.672 39.0457 579.825 39.8027 579.828 40.5677C579.841 41.7174 579.53 42.8476 578.931 43.8291C578.367 44.7768 577.514 45.5195 576.499 45.949L580.711 52.8931H576.634L572.925 46.7508H569.391V52.9475H565.79ZM569.391 43.6116H573.889C574.207 43.6108 574.52 43.5315 574.8 43.3806C575.093 43.2253 575.348 43.0072 575.547 42.7419C575.761 42.4535 575.926 42.1323 576.036 41.7907C576.162 41.4139 576.227 41.0193 576.227 40.622C576.231 40.2144 576.162 39.8093 576.023 39.4261C575.89 39.0779 575.697 38.7559 575.452 38.4749C575.23 38.2141 574.957 38.0014 574.65 37.8498C574.364 37.7061 574.047 37.6316 573.726 37.6324H569.391V43.6116Z" fill="#D4D4D4"/>
</g>
<defs>
<radialGradient id="paint0_radial_1503_7358" cx="0" cy="0" r="1" gradientUnits="userSpaceOnUse" gradientTransform="translate(438.54 162.692) rotate(0.221364) scale(98.2378 98.2377)">
<stop stop-color="#FED7AA"/>
<stop offset="0.25" stop-color="#FED7AA"/>
<stop offset="0.54" stop-color="#FDBA74"/>
<stop offset="0.86" stop-color="#FB923C"/>
<stop offset="1" stop-color="#F97316"/>
</radialGradient>
<clipPath id="clip0_1503_7358">
<rect width="870" height="382.049" fill="white"/>
</clipPath>
</defs>
</svg>
