<svg width="1280" height="1080" viewBox="0 0 1280 1080" fill="none" xmlns="http://www.w3.org/2000/svg">
<g clip-path="url(#clip0_364_5780)">
<rect width="1280" height="1080" fill="#FFF7ED"/>
<g clip-path="url(#clip1_364_5780)">
<rect width="1280" height="1080" fill="#FFF1E8"/>
<path opacity="0.15" d="M50.7525 892.001C15.7914 920.496 -18.0793 952.382 -39.36 992.608C-70.6565 1051.75 -70.1739 1126.15 -38.0571 1180.99C-10.8639 1227.48 34.9933 1257.76 74.2251 1293.67C122.56 1337.91 161.667 1391.81 198.678 1446.63C218.566 1476.07 238.62 1506.6 267.667 1526.32C307.999 1553.7 362.373 1556.4 409.859 1538.83C457.345 1521.25 497.993 1484.97 527.183 1441.86C542.715 1418.91 555.565 1392.99 557.418 1365.71C559.38 1336.85 548.925 1308.96 551.096 1280.1C553.106 1253.36 565.832 1228.07 580.705 1205.33C600.124 1175.64 623.631 1148.83 650.531 1125.7C681.02 1099.52 715.357 1078.63 745.946 1052.66C776.534 1026.69 804.221 993.805 813.797 954.685C822.804 917.911 814.888 880.203 805.28 844.776C789.636 786.887 769.306 730.369 744.491 675.781C727.831 639.199 708.805 603.118 680.942 575.112C627.673 521.559 542.856 503.96 469.607 531.248C408.92 553.86 359.914 602.932 317.712 654.297C279.228 701.138 244.121 760.72 194.231 795.485C146.628 828.622 96.4184 854.797 50.7525 892.001Z" fill="url(#paint0_linear_364_5780)" fill-opacity="0.4"/>
<path opacity="0.15" d="M916.489 619.489C973.685 584.868 1029.73 544.973 1067.94 489.927C1124.14 408.999 1134.46 298.438 1093.95 209.959C1059.66 134.95 994.681 79.9217 940.581 17.9739C873.925 -58.3208 822.686 -146.947 774.756 -236.466C749 -284.551 723.154 -334.29 682.078 -369.951C625.042 -419.456 543.07 -435.427 468.522 -419.772C393.974 -404.117 327.007 -359.189 276.384 -301.591C249.445 -270.941 226.128 -235.269 219.27 -195.183C212.013 -152.771 223.709 -109.056 216.134 -66.6892C209.118 -27.4283 186.083 7.32743 160.173 37.8185C126.345 77.6301 86.754 112.26 42.5676 140.686C-7.51101 172.857 -62.6318 196.326 -112.828 228.162C-163.025 259.998 -209.853 302.731 -230.169 358.706C-249.274 411.325 -242.883 469.049 -233.588 523.758C-218.486 613.142 -196.08 701.523 -166.594 788.023C-146.787 845.997 -123.322 903.748 -85.27 951.451C-12.5245 1042.67 113.355 1087.44 228.375 1063.03C323.67 1042.8 405.199 980.71 476.76 913.725C542.018 852.641 604.051 771.897 684.795 731.247C761.831 692.513 841.783 664.688 916.489 619.489Z" fill="url(#paint1_linear_364_5780)" fill-opacity="0.4"/>
<path d="M1218.77 901.969C1218.77 901.969 1214.8 909.834 1221.16 935.825C1227.52 961.817 1222.75 972.395 1211.62 988.501C1200.49 1004.61 1167.5 1039.08 1169.49 1081.1H1105.92C1105.92 1081.1 1117.43 1052.96 1120.61 1026.42C1123.79 999.872 1140.18 984.024 1164.98 971.345C1189.76 958.647 1197.71 910.309 1218.77 901.969Z" fill="#9FD9B9"/>
<path d="M1218.77 901.969C1218.77 901.969 1204.07 914.588 1202.08 935.825C1200.09 957.062 1196.91 973.307 1178.23 991.532C1159.55 1009.76 1137.3 1037.1 1137.3 1081.1" stroke="#FCFCFC" stroke-width="4.47939" stroke-miterlimit="10"/>
<path d="M1218.77 708.401C1218.77 708.401 1214 716.722 1218.77 738.117C1223.54 759.512 1226.46 786.256 1216.65 798.143C1206.85 810.029 1191.93 824.292 1186.56 849.254C1181.2 874.215 1193.72 892.044 1180.6 913.439C1167.49 934.835 1154.97 938.103 1152.58 966.789C1150.2 995.474 1172.25 1022.81 1119.79 1081.06H1000.66C1000.66 1081.06 1038.12 1010.91 1048.85 974.059C1059.58 937.212 1050.64 919.977 1067.33 894.699C1084.02 869.44 1107.27 877.127 1117.41 853.671C1127.54 830.216 1127.54 809.989 1141.85 795.131C1156.16 780.274 1179.41 774.331 1188.61 751.509C1197.51 729.499 1211.02 711.967 1218.77 708.401Z" fill="#40B374"/>
<path d="M1218.78 708.401C1200.49 728.41 1199.7 753.371 1198.51 771.597C1197.31 789.822 1169.89 795.765 1160.35 820.132C1150.81 844.499 1152.01 867.202 1140.68 887.943C1129.35 908.685 1111.47 911.062 1098.95 939.589C1086.43 968.116 1105.51 1033.51 1060.8 1081.06" stroke="white" stroke-width="4.47939" stroke-miterlimit="10"/>
<path d="M992.014 705.231C1076.42 621.083 1076.42 484.651 992.014 400.502C907.606 316.353 770.754 316.353 686.346 400.502C601.938 484.651 601.938 621.083 686.346 705.231C770.754 789.38 907.606 789.38 992.014 705.231Z" fill="#FF981F"/>
<path d="M1039.71 395.246C994.975 395.246 958.709 431.4 958.709 475.993C958.709 484.927 960.18 493.486 962.862 501.529L922.305 546.439L978.024 528.312C992.888 545.706 1014.99 556.74 1039.69 556.74C1084.42 556.74 1120.68 520.586 1120.68 475.993C1120.7 431.38 1084.44 395.246 1039.71 395.246Z" fill="#FDCB40"/>
<path d="M1031.75 511.989C1030.16 511.989 1028.55 511.374 1027.34 510.166L988.036 470.981C985.592 468.544 985.592 464.622 988.036 462.185C990.48 459.748 994.415 459.748 996.859 462.185L1031.75 496.972L1082.55 446.337C1084.99 443.9 1088.92 443.9 1091.37 446.337C1093.81 448.773 1093.81 452.696 1091.37 455.133L1036.16 510.166C1034.95 511.374 1033.34 511.989 1031.75 511.989Z" fill="#FF9100"/>
<path d="M702.353 902.808H172.738C160.914 902.808 151.336 893.26 151.336 881.473V459.471C151.336 447.683 160.914 438.135 172.738 438.135H702.333C714.156 438.135 723.734 447.683 723.734 459.471V881.492C723.734 893.26 714.156 902.808 702.353 902.808Z" fill="url(#paint2_linear_364_5780)"/>
<path d="M585.496 566.527L593.425 548.776H597.498L605.467 566.527H601.135L594.617 550.856H596.247L589.709 566.527H585.496ZM589.47 562.723L590.563 559.593H599.724L600.837 562.723H589.47Z" fill="#AA4500"/>
<path d="M614.865 566.844C612.341 566.844 610.354 566.15 608.943 564.744C607.512 563.337 606.797 561.336 606.797 558.741V548.796H610.91V558.583C610.91 560.267 611.248 561.495 611.944 562.228C612.639 562.981 613.613 563.337 614.865 563.337C616.117 563.337 617.09 562.961 617.786 562.228C618.481 561.475 618.819 560.267 618.819 558.583V548.796H622.893V558.741C622.893 561.336 622.177 563.357 620.747 564.744C619.356 566.131 617.388 566.844 614.865 566.844Z" fill="#AA4500"/>
<path d="M635.592 566.844C634.181 566.844 632.889 566.626 631.717 566.17C630.544 565.714 629.511 565.08 628.637 564.248C627.762 563.416 627.087 562.446 626.61 561.336C626.133 560.227 625.895 558.999 625.895 557.652C625.895 556.324 626.133 555.096 626.61 553.967C627.087 552.857 627.782 551.887 628.657 551.055C629.531 550.223 630.564 549.589 631.757 549.133C632.949 548.677 634.241 548.459 635.671 548.459C637.241 548.459 638.672 548.717 639.924 549.252C641.196 549.767 642.249 550.54 643.123 551.53L640.48 553.967C639.844 553.293 639.129 552.798 638.374 552.461C637.619 552.124 636.784 551.966 635.89 551.966C635.016 551.966 634.241 552.105 633.525 552.362C632.81 552.639 632.194 553.016 631.677 553.531C631.16 554.046 630.763 554.64 630.485 555.334C630.207 556.027 630.067 556.8 630.067 557.652C630.067 558.484 630.207 559.236 630.485 559.93C630.763 560.623 631.16 561.237 631.677 561.752C632.194 562.267 632.81 562.664 633.505 562.941C634.201 563.218 634.976 563.337 635.83 563.337C636.645 563.337 637.44 563.198 638.215 562.941C638.99 562.683 639.745 562.228 640.46 561.614L642.805 564.585C641.831 565.318 640.719 565.873 639.427 566.249C638.135 566.626 636.864 566.844 635.592 566.844ZM639.03 564.05V557.374H642.785V564.585L639.03 564.05Z" fill="#AA4500"/>
<path d="M654.509 566.844C651.986 566.844 649.998 566.15 648.588 564.744C647.157 563.337 646.441 561.336 646.441 558.741V548.796H650.555V558.583C650.555 560.267 650.893 561.495 651.608 562.228C652.303 562.981 653.277 563.337 654.529 563.337C655.781 563.337 656.755 562.961 657.45 562.228C658.146 561.475 658.484 560.267 658.484 558.583V548.796H662.557V558.741C662.557 561.336 661.842 563.357 660.411 564.744C659.02 566.131 657.053 566.844 654.509 566.844Z" fill="#AA4500"/>
<path d="M672.495 566.844C671.065 566.844 669.713 566.645 668.402 566.269C667.09 565.893 666.037 565.397 665.242 564.783L666.633 561.693C667.388 562.228 668.302 562.683 669.336 563.02C670.389 563.357 671.442 563.535 672.495 563.535C673.31 563.535 673.966 563.456 674.463 563.297C674.959 563.139 675.337 562.921 675.575 562.624C675.814 562.347 675.933 562.01 675.933 561.633C675.933 561.158 675.754 560.782 675.377 560.504C674.999 560.227 674.502 559.989 673.906 559.811C673.29 559.633 672.615 559.474 671.879 559.296C671.144 559.117 670.409 558.939 669.674 558.701C668.938 558.464 668.263 558.167 667.647 557.79C667.031 557.414 666.534 556.919 666.156 556.324C665.779 555.71 665.58 554.937 665.58 553.987C665.58 552.976 665.858 552.045 666.415 551.213C666.971 550.381 667.806 549.708 668.899 549.212C670.011 548.717 671.402 548.459 673.091 548.459C674.204 548.459 675.317 548.598 676.39 548.856C677.483 549.113 678.437 549.509 679.271 550.024L678 553.155C677.165 552.679 676.33 552.323 675.516 552.105C674.701 551.887 673.866 551.768 673.072 551.768C672.277 551.768 671.621 551.867 671.104 552.045C670.588 552.223 670.23 552.481 670.011 552.778C669.793 553.075 669.674 553.412 669.674 553.808C669.674 554.264 669.852 554.64 670.23 554.918C670.608 555.195 671.084 555.413 671.7 555.591C672.316 555.77 672.992 555.928 673.727 556.106C674.463 556.285 675.198 556.463 675.933 556.681C676.668 556.899 677.344 557.196 677.96 557.572C678.576 557.949 679.073 558.424 679.45 559.038C679.828 559.652 680.027 560.425 680.027 561.356C680.027 562.347 679.748 563.258 679.192 564.09C678.636 564.922 677.801 565.576 676.688 566.091C675.595 566.586 674.204 566.844 672.495 566.844Z" fill="#AA4500"/>
<path d="M686.324 566.527V552.125H680.621V548.777H696.141V552.125H690.438V566.527H686.324Z" fill="#AA4500"/>
<path d="M587.777 627.443C587.777 631.207 584.717 634.258 580.941 634.258C577.166 634.258 574.105 631.207 574.105 627.443C574.105 623.679 577.166 620.628 580.941 620.628C584.697 620.628 587.777 623.679 587.777 627.443Z" stroke="#AA4500" stroke-width="3.92687" stroke-miterlimit="10"/>
<path d="M597.73 627.443H700.387" stroke="#AA4500" stroke-width="3.92687" stroke-miterlimit="10"/>
<path d="M580.922 689.411C584.697 689.411 587.758 686.36 587.758 682.596C587.758 678.832 584.697 675.781 580.922 675.781C577.146 675.781 574.086 678.832 574.086 682.596C574.086 686.36 577.146 689.411 580.922 689.411Z" stroke="#AA4500" stroke-width="3.92687" stroke-miterlimit="10"/>
<path d="M597.73 682.596H700.387" stroke="#AA4500" stroke-width="3.92687" stroke-miterlimit="10"/>
<path d="M580.922 744.563C584.697 744.563 587.758 741.512 587.758 737.748C587.758 733.984 584.697 730.933 580.922 730.933C577.146 730.933 574.086 733.984 574.086 737.748C574.086 741.512 577.146 744.563 580.922 744.563Z" stroke="#AA4500" stroke-width="3.92687" stroke-miterlimit="10"/>
<path d="M597.73 737.748H700.387" stroke="#AA4500" stroke-width="3.92687" stroke-miterlimit="10"/>
<path d="M356.765 740.421C366.577 740.421 374.53 732.492 374.53 722.711C374.53 712.929 366.577 705 356.765 705C346.954 705 339 712.929 339 722.711C339 732.492 346.954 740.421 356.765 740.421Z" fill="#DE5629"/>
<path d="M267.476 602.205C269.007 592.544 262.393 583.475 252.702 581.948C243.012 580.421 233.914 587.015 232.383 596.676C230.851 606.337 237.465 615.406 247.156 616.933C256.847 618.46 265.944 611.866 267.476 602.205Z" stroke="#40B374" stroke-width="3.68466" stroke-miterlimit="10"/>
<path d="M315.908 611.934C322.845 605.018 322.845 593.804 315.908 586.888C308.97 579.972 297.722 579.972 290.784 586.888C283.847 593.804 283.847 605.018 290.784 611.934C297.722 618.851 308.97 618.851 315.908 611.934Z" stroke="#40B374" stroke-width="3.68466" stroke-miterlimit="10"/>
<path d="M374.065 603.47C376.311 593.948 370.389 584.413 360.837 582.175C351.286 579.936 341.722 585.84 339.477 595.362C337.231 604.884 343.153 614.418 352.705 616.657C362.256 618.896 371.819 612.992 374.065 603.47Z" stroke="#40B374" stroke-width="3.68466" stroke-miterlimit="10"/>
<path d="M427.686 602.214C429.253 592.558 422.671 583.464 412.985 581.902C403.3 580.34 394.177 586.902 392.611 596.558C391.044 606.214 397.625 615.308 407.311 616.87C416.997 618.432 426.119 611.87 427.686 602.214Z" stroke="#40B374" stroke-width="3.68466" stroke-miterlimit="10"/>
<path d="M481.092 602.222C482.659 592.566 476.077 583.472 466.392 581.91C456.706 580.347 447.584 586.909 446.017 596.565C444.45 606.221 451.032 615.315 460.717 616.877C470.403 618.439 479.525 611.878 481.092 602.222Z" stroke="#40B374" stroke-width="3.68466" stroke-miterlimit="10"/>
<path d="M534.464 602.306C536.062 592.656 529.51 583.541 519.831 581.948C510.151 580.355 501.008 586.886 499.41 596.536C497.811 606.186 504.363 615.301 514.043 616.894C523.723 618.488 532.865 611.956 534.464 602.306Z" stroke="#40B374" stroke-width="3.68466" stroke-miterlimit="10"/>
<path d="M196.542 678.911C206.354 678.911 214.308 670.982 214.308 661.2C214.308 651.419 206.354 643.49 196.542 643.49C186.731 643.49 178.777 651.419 178.777 661.2C178.777 670.982 186.731 678.911 196.542 678.911Z" stroke="#40B374" stroke-width="3.68466" stroke-miterlimit="10"/>
<path d="M249.937 678.911C259.748 678.911 267.702 670.982 267.702 661.2C267.702 651.419 259.748 643.49 249.937 643.49C240.126 643.49 232.172 651.419 232.172 661.2C232.172 670.982 240.126 678.911 249.937 678.911Z" stroke="#40B374" stroke-width="3.68466" stroke-miterlimit="10"/>
<path d="M303.355 678.911C313.166 678.911 321.12 670.982 321.12 661.201C321.12 651.419 313.166 643.49 303.355 643.49C293.544 643.49 285.59 651.419 285.59 661.201C285.59 670.982 293.544 678.911 303.355 678.911Z" stroke="#40B374" stroke-width="3.68466" stroke-miterlimit="10"/>
<path d="M410.164 678.911C419.975 678.911 427.929 670.982 427.929 661.2C427.929 651.419 419.975 643.49 410.164 643.49C400.352 643.49 392.398 651.419 392.398 661.2C392.398 670.982 400.352 678.911 410.164 678.911Z" stroke="#40B374" stroke-width="3.68466" stroke-miterlimit="10"/>
<path d="M463.558 678.911C473.369 678.911 481.323 670.982 481.323 661.201C481.323 651.419 473.369 643.49 463.558 643.49C453.747 643.49 445.793 651.419 445.793 661.201C445.793 670.982 453.747 678.911 463.558 678.911Z" stroke="#40B374" stroke-width="3.68466" stroke-miterlimit="10"/>
<path d="M516.976 678.911C526.787 678.911 534.741 670.982 534.741 661.201C534.741 651.419 526.787 643.49 516.976 643.49C507.165 643.49 499.211 651.419 499.211 661.201C499.211 670.982 507.165 678.911 516.976 678.911Z" stroke="#40B374" stroke-width="3.68466" stroke-miterlimit="10"/>
<path d="M196.542 740.699C206.354 740.699 214.308 732.77 214.308 722.989C214.308 713.208 206.354 705.278 196.542 705.278C186.731 705.278 178.777 713.208 178.777 722.989C178.777 732.77 186.731 740.699 196.542 740.699Z" stroke="#40B374" stroke-width="3.68466" stroke-miterlimit="10"/>
<path d="M249.937 740.699C259.748 740.699 267.702 732.77 267.702 722.989C267.702 713.208 259.748 705.278 249.937 705.278C240.126 705.278 232.172 713.208 232.172 722.989C232.172 732.77 240.126 740.699 249.937 740.699Z" stroke="#40B374" stroke-width="3.68466" stroke-miterlimit="10"/>
<path d="M303.347 740.699C313.159 740.699 321.112 732.77 321.112 722.989C321.112 713.208 313.159 705.278 303.347 705.278C293.536 705.278 285.582 713.208 285.582 722.989C285.582 732.77 293.536 740.699 303.347 740.699Z" stroke="#40B374" stroke-width="3.68466" stroke-miterlimit="10"/>
<path d="M356.765 678.421C366.577 678.421 374.53 670.492 374.53 660.711C374.53 650.929 366.577 643 356.765 643C346.954 643 339 650.929 339 660.711C339 670.492 346.954 678.421 356.765 678.421Z" stroke="#40B374" stroke-width="3.68466" stroke-miterlimit="10"/>
<path d="M410.16 740.699C419.971 740.699 427.925 732.77 427.925 722.989C427.925 713.208 419.971 705.278 410.16 705.278C400.348 705.278 392.395 713.208 392.395 722.989C392.395 732.77 400.348 740.699 410.16 740.699Z" stroke="#40B374" stroke-width="3.68466" stroke-miterlimit="10"/>
<path d="M463.558 740.699C473.369 740.699 481.323 732.77 481.323 722.989C481.323 713.208 473.369 705.278 463.558 705.278C453.747 705.278 445.793 713.208 445.793 722.989C445.793 732.77 453.747 740.699 463.558 740.699Z" stroke="#40B374" stroke-width="3.68466" stroke-miterlimit="10"/>
<path d="M516.968 740.699C526.78 740.699 534.733 732.77 534.733 722.989C534.733 713.208 526.78 705.278 516.968 705.278C507.157 705.278 499.203 713.208 499.203 722.989C499.203 732.77 507.157 740.699 516.968 740.699Z" stroke="#40B374" stroke-width="3.68466" stroke-miterlimit="10"/>
<path d="M203.354 801.127C212.419 797.384 216.724 787.023 212.969 777.986C209.214 768.949 198.822 764.658 189.757 768.401C180.692 772.145 176.388 782.505 180.142 791.542C183.897 800.579 194.29 804.87 203.354 801.127Z" stroke="#40B374" stroke-width="3.68466" stroke-miterlimit="10"/>
<path d="M256.385 801.267C265.524 797.71 270.04 787.44 266.472 778.329C262.903 769.217 252.602 764.715 243.462 768.273C234.323 771.83 229.807 782.1 233.375 791.211C236.944 800.322 247.245 804.825 256.385 801.267Z" stroke="#40B374" stroke-width="3.68466" stroke-miterlimit="10"/>
<path d="M320.609 788.834C322.871 779.317 316.967 769.773 307.42 767.517C297.874 765.262 288.301 771.148 286.038 780.666C283.776 790.183 289.68 799.726 299.227 801.982C308.773 804.238 318.346 798.351 320.609 788.834Z" stroke="#40B374" stroke-width="3.68466" stroke-miterlimit="10"/>
<path d="M369.306 797.285C376.244 790.369 376.244 779.155 369.306 772.239C362.369 765.323 351.12 765.323 344.183 772.239C337.245 779.155 337.245 790.369 344.183 797.285C351.12 804.202 362.369 804.202 369.306 797.285Z" stroke="#40B374" stroke-width="3.68466" stroke-miterlimit="10"/>
<path d="M416.907 801.117C425.98 797.394 430.307 787.044 426.573 778C422.839 768.955 412.457 764.641 403.384 768.363C394.312 772.086 389.984 782.436 393.718 791.481C397.453 800.526 407.835 804.84 416.907 801.117Z" stroke="#40B374" stroke-width="3.68466" stroke-miterlimit="10"/>
<path d="M470.302 801.122C479.374 797.399 483.702 787.049 479.968 778.004C476.234 768.959 465.852 764.645 456.779 768.368C447.706 772.091 443.379 782.441 447.113 791.485C450.847 800.53 461.229 804.844 470.302 801.122Z" stroke="#40B374" stroke-width="3.68466" stroke-miterlimit="10"/>
<path d="M524.023 801.004C533.034 797.133 537.191 786.713 533.309 777.73C529.427 768.747 518.975 764.602 509.964 768.473C500.953 772.343 496.796 782.763 500.678 791.746C504.56 800.729 515.012 804.874 524.023 801.004Z" stroke="#40B374" stroke-width="3.68466" stroke-miterlimit="10"/>
<path d="M196.542 864.257C206.354 864.257 214.308 856.328 214.308 846.546C214.308 836.765 206.354 828.836 196.542 828.836C186.731 828.836 178.777 836.765 178.777 846.546C178.777 856.328 186.731 864.257 196.542 864.257Z" stroke="#40B374" stroke-width="3.68466" stroke-miterlimit="10"/>
<path d="M249.937 864.257C259.748 864.257 267.702 856.328 267.702 846.546C267.702 836.765 259.748 828.836 249.937 828.836C240.126 828.836 232.172 836.765 232.172 846.546C232.172 856.328 240.126 864.257 249.937 864.257Z" stroke="#40B374" stroke-width="3.68466" stroke-miterlimit="10"/>
<path d="M303.347 864.257C313.159 864.257 321.112 856.328 321.112 846.546C321.112 836.765 313.159 828.836 303.347 828.836C293.536 828.836 285.582 836.765 285.582 846.546C285.582 856.328 293.536 864.257 303.347 864.257Z" stroke="#40B374" stroke-width="3.68466" stroke-miterlimit="10"/>
<path d="M189.152 549.132L190.543 546.418C192.034 547.369 194.279 548.043 196.425 548.043C198.869 548.043 199.863 547.329 199.863 546.379C199.863 543.466 189.51 545.467 189.51 539.683C189.51 537.028 191.954 534.829 197.002 534.829C199.247 534.829 201.532 535.305 203.182 536.216L201.91 538.95C200.261 538.118 198.552 537.721 196.982 537.721C194.538 537.721 193.604 538.514 193.604 539.504C193.604 542.377 203.957 540.396 203.957 546.121C203.957 548.716 201.493 550.955 196.405 550.955C193.564 550.935 190.722 550.182 189.152 549.132Z" fill="#DE5629"/>
<path d="M256.121 552.857L256.101 542.219L250.855 550.995H249.007L243.8 542.456V552.877H239.945V535.126H243.343L250 546.161L256.558 535.126H259.936L259.996 552.877H256.121V552.857Z" fill="#AA4500"/>
<path d="M301.289 538.455H295.586V535.107H311.086V538.455H305.383V552.857H301.269V538.455H301.289Z" fill="#AA4500"/>
<path d="M370.975 535.126L365.153 552.877H360.721L356.807 540.852L352.773 552.877H348.381L342.539 535.126H346.811L350.825 547.607L355.018 535.126H358.834L362.907 547.706L367.06 535.126H370.975Z" fill="#AA4500"/>
<path d="M408.094 538.455H402.391V535.107H417.89V538.455H412.187V552.857H408.074V538.455H408.094Z" fill="#AA4500"/>
<path d="M460.957 538.415V543.11H469.204V546.399H460.957V552.857H456.844V535.107H470.297V538.395H460.957V538.415Z" fill="#AA4500"/>
<path d="M509.555 551.113L510.946 548.023C512.436 549.112 514.682 549.865 516.828 549.865C519.272 549.865 520.265 549.053 520.265 547.963C520.265 544.635 509.912 546.933 509.912 540.336C509.912 537.325 512.357 534.809 517.404 534.809C519.649 534.809 521.935 535.344 523.584 536.374L522.312 539.484C520.663 538.553 518.954 538.098 517.384 538.098C514.94 538.098 514.006 539.009 514.006 540.118C514.006 543.387 524.359 541.129 524.359 547.646C524.359 550.618 521.895 553.154 516.808 553.154C513.986 553.173 511.144 552.322 509.555 551.113Z" fill="#AA4500"/>
<path d="M723.738 514.801H151.359V459.47C151.359 447.683 160.937 438.134 172.761 438.134H702.356C714.18 438.134 723.758 447.683 723.758 459.47V514.801H723.738Z" fill="#F0CA4E"/>
<path d="M273.372 474.804C253.063 474.804 236.59 458.381 236.59 438.134C236.59 417.888 253.063 401.465 273.372 401.465C293.681 401.465 310.154 417.888 310.154 438.134" stroke="#AA4500" stroke-width="7.85411" stroke-miterlimit="10" stroke-linecap="round" stroke-linejoin="round"/>
<path d="M328.099 474.804C307.79 474.804 291.316 458.381 291.316 438.134C291.316 417.888 307.79 401.465 328.099 401.465C348.407 401.465 364.881 417.888 364.881 438.134" stroke="#AA4500" stroke-width="7.85411" stroke-miterlimit="10" stroke-linecap="round" stroke-linejoin="round"/>
<path d="M382.825 474.804C362.516 474.804 346.043 458.381 346.043 438.134C346.043 417.888 362.516 401.465 382.825 401.465C403.134 401.465 419.607 417.888 419.607 438.134" stroke="#AA4500" stroke-width="7.85411" stroke-miterlimit="10" stroke-linecap="round" stroke-linejoin="round"/>
<path d="M437.552 474.804C417.243 474.804 400.77 458.381 400.77 438.134C400.77 417.888 417.243 401.465 437.552 401.465C457.86 401.465 474.334 417.888 474.334 438.134" stroke="#AA4500" stroke-width="7.85411" stroke-miterlimit="10" stroke-linecap="round" stroke-linejoin="round"/>
<path d="M492.274 474.804C471.966 474.804 455.492 458.381 455.492 438.134C455.492 417.888 471.966 401.465 492.274 401.465C512.583 401.465 529.056 417.888 529.056 438.134" stroke="#AA4500" stroke-width="7.85411" stroke-miterlimit="10" stroke-linecap="round" stroke-linejoin="round"/>
<path d="M547.001 474.804C526.692 474.804 510.219 458.381 510.219 438.134C510.219 417.888 526.692 401.465 547.001 401.465C567.31 401.465 583.783 417.888 583.783 438.134" stroke="#AA4500" stroke-width="7.85411" stroke-miterlimit="10" stroke-linecap="round" stroke-linejoin="round"/>
<path d="M601.704 474.804C581.395 474.804 564.922 458.381 564.922 438.134C564.922 417.888 581.395 401.465 601.704 401.465C622.013 401.465 638.486 417.888 638.486 438.134" stroke="#AA4500" stroke-width="7.85411" stroke-miterlimit="10" stroke-linecap="round" stroke-linejoin="round"/>
<path d="M770.515 397.623C796.357 371.86 796.357 330.092 770.515 304.33C744.674 278.567 702.776 278.567 676.935 304.33C651.093 330.092 651.093 371.86 676.935 397.623C702.776 423.385 744.674 423.385 770.515 397.623Z" fill="#AA4500"/>
<path d="M723.731 401.287C751.607 401.287 774.205 378.759 774.205 350.968C774.205 323.178 751.607 300.65 723.731 300.65C695.856 300.65 673.258 323.178 673.258 350.968C673.258 378.759 695.856 401.287 723.731 401.287Z" fill="white"/>
<path d="M695.676 328.147L723.734 350.969V395.978" stroke="#F0CA4E" stroke-width="7.85411" stroke-miterlimit="10" stroke-linecap="round" stroke-linejoin="round"/>
<path d="M917.523 630.824C933.182 635.895 965.99 648.891 997.923 661.887C1047.68 682.153 1082.44 727.776 1088.78 780.967C1096.96 849.769 1105.35 923.622 1107.97 946.047C1113.69 994.88 1080.91 1042.43 1054.68 1045.99L1064.81 1081.06H789.332L724.352 874.789C724.352 874.789 676.064 976.437 656.372 1004.96C636.699 1033.49 580.641 1054.89 537.719 996.643C494.797 938.401 456.027 855.91 456.027 855.91L518.881 817.676L584.815 897.948L632.287 765.733C646.118 727.202 675.27 696.04 712.866 679.577L783.649 648.594L917.523 630.824Z" fill="#FEBB02"/>
<path d="M926.048 633.756C922.849 632.607 919.968 631.616 917.524 630.824L783.669 648.653L774.926 652.477C797.977 684.332 886.504 699.487 926.048 633.756Z" fill="#F0CA4E"/>
<path d="M877.122 867.103H811.446L794.734 746.636H860.41L877.122 867.103Z" fill="white"/>
<path d="M853.754 751.568L869.055 861.932" stroke="#313B48" stroke-width="3.96294" stroke-miterlimit="10"/>
<path d="M809.117 758.166C809.395 760.107 808.024 761.672 806.096 761.672C804.149 761.672 802.361 760.107 802.102 758.166C801.824 756.224 803.195 754.659 805.123 754.659C807.05 754.659 808.859 756.244 809.117 758.166Z" fill="#313B48"/>
<path d="M820.043 760.731C821.279 759.411 821.044 757.191 819.52 755.773C817.995 754.355 815.758 754.275 814.522 755.595C813.287 756.914 813.521 759.134 815.045 760.553C816.57 761.971 818.807 762.051 820.043 760.731Z" fill="#313B48"/>
<path d="M686.871 950.584L701.039 803.709L724.329 874.829L686.871 950.584Z" fill="#AA4500"/>
<path d="M584.813 898.007L574.082 931.308" stroke="#4C3425" stroke-width="3.92687" stroke-miterlimit="10"/>
<path d="M549.199 1010.11C590.135 1051.1 638.383 1031.05 656.346 1005C657.101 1003.91 657.896 1002.71 658.711 1001.42C647.325 985.629 628.208 975.268 606.548 975.268C581.153 975.288 559.234 989.551 549.199 1010.11Z" fill="#AA4500"/>
<path d="M904.984 864.131L1020.06 956.27" stroke="#4C3425" stroke-width="3.92687" stroke-miterlimit="10"/>
<path d="M1099.79 1000.21C1089.87 992.899 1077.21 988.501 1063.4 988.501C1031.69 988.501 1005.97 1011.66 1005.97 1040.21C1005.97 1043.36 1006.31 1046.43 1006.91 1049.42C1021.23 1051.1 1037.61 1050.67 1054.66 1046.01C1079.04 1039.37 1092.45 1019.03 1099.79 1000.21Z" fill="#AA4500"/>
<path d="M851.09 888.003L907.286 869.44L861.92 906.506L851.09 888.003Z" fill="#AA4500"/>
<path d="M517.489 819.677L479.852 761.691C479.852 761.691 467.115 738.295 454.814 729.44C449.171 725.379 436.851 714.107 434.605 711.175C434.605 711.175 427.69 713.473 431.008 720.743C434.327 728.014 445.276 740.494 445.276 740.494C445.276 740.494 417.138 734.274 406.745 731.282C396.352 728.291 378.528 722.685 376.958 729.737C375.249 737.503 416.562 746.556 416.562 746.556C416.562 746.556 406.268 748.716 410.243 759.552C403.745 763.039 403.307 771.775 410.918 775.004C406.646 780.234 410.561 788.297 421.689 788.277C431.744 794.24 440.249 799.331 456.245 793.487L478.223 847.51L517.489 819.677Z" fill="#EEC2AC"/>
<path d="M416.586 746.596L438.464 752.737" stroke="#9D3030" stroke-width="3.92687" stroke-miterlimit="10"/>
<path d="M410.266 759.592L436.913 765.991" stroke="#9D3030" stroke-width="3.92687" stroke-miterlimit="10"/>
<path d="M410.941 775.044L435.165 776.431" stroke="#9D3030" stroke-width="3.92687" stroke-miterlimit="10"/>
<path d="M421.711 788.316L435.363 786.989" stroke="#9D3030" stroke-width="3.92687" stroke-miterlimit="10"/>
<path d="M439.078 786.91C439.078 786.91 443.926 782.67 438.879 776.37C443.449 773.32 441.363 768.01 439.773 765.95C444.006 763.949 445.695 756.481 439.872 752.717" stroke="#9D3030" stroke-width="3.92687" stroke-miterlimit="10"/>
<path d="M442.992 762.444C442.992 762.444 446.748 776.767 463.48 779.244" stroke="#9D3030" stroke-width="3.92687" stroke-miterlimit="10"/>
<path d="M518.642 822.232L467.334 878.85L456.027 855.969L518.642 822.232Z" fill="#AA4500"/>
<path d="M897.549 861.893L881.155 842.459C881.155 842.459 888.825 802.482 865.019 786.118C865.019 786.118 872.809 812.664 859.753 818.568C846.698 824.471 823.508 820.687 802.503 802.759L801.45 794.439C801.45 794.439 795.688 807.791 803.974 813.595C800.993 820.588 799.503 826.571 806.259 829.879C802.225 835.03 804.093 843.093 809.18 845.133C804.411 854.048 812.956 860.982 822.097 861.953C827.999 862.567 849.897 863.181 849.897 863.181L865.854 881.585L897.549 861.893Z" fill="#EEC2AC"/>
<path d="M724.336 806.879H782.321C782.321 806.879 805.63 877.147 770.637 877.147C735.663 877.147 724.336 806.879 724.336 806.879Z" fill="#FDCB40"/>
<path d="M874.379 557.426C874.379 557.426 890.078 532.465 894.847 517.805C899.616 503.145 883.719 503.74 883.719 503.74C885.905 487.495 880.142 480.958 867.424 480.561C864.841 464.911 847.155 456.987 836.027 467.685C820.13 451.836 795.489 463.723 796.085 486.306C776.413 482.146 769.259 526.224 797.874 533.118L851.924 563.706L874.379 557.426Z" fill="#2F1111"/>
<path d="M804.83 508.672C804.83 508.672 835.531 525.313 860.271 520.261C860.271 520.261 858.483 529.77 866.531 534.525L857.589 558L861.762 559.189C861.762 559.189 871.002 539.279 882.031 543.143C893.059 547.006 880.242 584.15 860.569 573.155L876.665 619.215L917.501 630.804C917.501 630.804 902.598 670.623 837.002 670.623C803.022 670.623 783.647 648.633 783.647 648.633L817.627 635.558L808.089 604.951C808.089 604.951 785.733 605.149 778.878 588.31C771.982 571.353 787.522 549.383 787.522 549.383L804.83 508.672Z" fill="#EEC2AC"/>
<path d="M808.105 604.971C822.274 605.11 840.476 594.709 847.312 587.736C847.312 587.736 833.919 622.998 814.385 625.138L808.105 604.971Z" fill="#9D3030"/>
<path d="M817.648 635.578L823.312 650.297" stroke="#9D3030" stroke-width="3.92687" stroke-miterlimit="10"/>
<path d="M801.852 567.925H819.537C819.537 567.925 821.425 589.677 814.967 589.677C808.509 589.677 801.852 567.925 801.852 567.925Z" fill="white"/>
<path d="M803.539 538.665C803.539 541.736 802.267 544.232 800.697 544.232C799.127 544.232 797.855 541.736 797.855 538.665C797.855 535.595 799.127 533.099 800.697 533.099C802.267 533.099 803.539 535.595 803.539 538.665Z" fill="#2F1111"/>
<path d="M826.267 547.718C827.837 547.718 829.109 545.226 829.109 542.152C829.109 539.077 827.837 536.585 826.267 536.585C824.698 536.585 823.426 539.077 823.426 542.152C823.426 545.226 824.698 547.718 826.267 547.718Z" fill="#2F1111"/>
<path d="M791.717 528.899L812.145 531.395C812.145 531.395 813.934 552.077 798.434 550.175C782.914 548.293 791.717 528.899 791.717 528.899Z" stroke="white" stroke-width="3.92687" stroke-miterlimit="10"/>
<path d="M818.721 532.207L839.149 534.703C839.149 534.703 840.937 555.385 825.438 553.483C809.918 551.581 818.721 532.207 818.721 532.207Z" stroke="white" stroke-width="3.92687" stroke-miterlimit="10"/>
<path d="M812.027 536.585L817.035 537.199" stroke="white" stroke-width="3.92687" stroke-miterlimit="10"/>
<path d="M838.711 542.152L869.889 547.382" stroke="white" stroke-width="3.92687" stroke-miterlimit="10"/>
<path d="M823.426 526.224L842.9 525.392" stroke="#2F1111" stroke-width="7.85411" stroke-miterlimit="10"/>
<path d="M817.03 526.522C817.03 526.522 808.088 518.717 799.523 521.173" stroke="#2F1111" stroke-width="7.85411" stroke-miterlimit="10"/>
<path d="M813.396 538.666L802.824 560.675C802.824 560.675 808.329 562.834 813.396 558.654" stroke="#2F1111" stroke-width="3.92687" stroke-miterlimit="10"/>
<path d="M863.352 563.667C863.352 563.667 869.909 565.945 871.002 563.667C872.095 561.388 866.73 557.922 866.73 557.922C866.73 557.922 872.989 546.431 878.851 548.512C884.713 550.592 877.063 563.369 877.063 563.369" stroke="#2F1111" stroke-width="3.92687" stroke-miterlimit="10"/>
<path d="M1054.66 1046.03C1029.02 1054.35 968.197 1056.15 927.659 1004.43C887.121 952.704 848.352 883.169 848.352 883.169" stroke="#4C3425" stroke-width="3.92687" stroke-miterlimit="10"/>
<path d="M724.331 874.829L693.133 779.541" stroke="#4C3425" stroke-width="3.92687" stroke-miterlimit="10"/>
<path d="M962.535 771.596L994.548 935.825" stroke="#4C3425" stroke-width="3.92687" stroke-miterlimit="10"/>
<path d="M845.367 889.885L912.553 867.697L902.001 855.969L837.617 879.385L845.367 889.885Z" fill="white"/>
<path d="M456.03 860.862L524.904 818.369L516.26 804.997L447.227 846.301L456.03 860.862Z" fill="white"/>
<path d="M410.656 875.648L392.116 842.168L373.576 875.648C369.84 882.384 362.746 886.564 355.035 886.564H231.335C219.631 886.564 210.152 896.013 210.152 907.682V1058.99C210.152 1070.66 219.631 1080.11 231.335 1080.11H552.896C564.6 1080.11 574.079 1070.66 574.079 1058.99V907.682C574.079 896.013 564.6 886.564 552.896 886.564H429.196C421.486 886.564 414.392 882.384 410.656 875.648Z" fill="#FF981F"/>
<path d="M317.699 906.631V1062.5" stroke="white" stroke-width="4.47939" stroke-miterlimit="10"/>
<path d="M260.564 938.368C248.303 939.715 238.367 949.601 236.976 961.824C236.082 969.649 238.586 976.879 243.196 982.268C250.171 990.43 255.397 999.959 259.57 1009.84L262.293 1016.28C262.789 1017.45 264.459 1017.45 264.955 1016.28L268.552 1007.76C272.566 998.235 278.269 989.598 284.708 981.476C288.304 976.919 290.471 971.194 290.471 964.934C290.471 949.165 276.759 936.585 260.564 938.368ZM263.644 975.334C257.901 975.334 253.231 970.679 253.231 964.954C253.231 959.228 257.901 954.573 263.644 954.573C269.387 954.573 274.057 959.228 274.057 964.954C274.057 970.679 269.387 975.334 263.644 975.334Z" fill="#DE5629"/>
<path d="M354.424 956.931V926.205L357.802 929.573H347.688V923.333H362.233V956.931H354.424Z" fill="#AA4500"/>
<path d="M387.353 957.505C384.591 957.505 382.127 956.832 379.941 955.465C377.755 954.098 376.046 952.137 374.794 949.542C373.542 946.946 372.906 943.816 372.906 940.132C372.906 936.447 373.522 933.317 374.794 930.722C376.046 928.126 377.755 926.145 379.941 924.798C382.127 923.431 384.591 922.758 387.353 922.758C390.155 922.758 392.619 923.431 394.785 924.798C396.951 926.165 398.66 928.126 399.912 930.722C401.164 933.317 401.78 936.447 401.78 940.132C401.78 943.816 401.164 946.946 399.912 949.542C398.66 952.137 396.951 954.118 394.785 955.465C392.619 956.812 390.155 957.505 387.353 957.505ZM387.353 950.928C388.664 950.928 389.817 950.572 390.791 949.819C391.764 949.086 392.539 947.917 393.096 946.312C393.652 944.708 393.93 942.648 393.93 940.112C393.93 937.576 393.652 935.516 393.096 933.911C392.539 932.306 391.764 931.138 390.791 930.405C389.817 929.672 388.664 929.295 387.353 929.295C386.061 929.295 384.929 929.672 383.955 930.405C382.981 931.138 382.206 932.306 381.65 933.911C381.093 935.516 380.815 937.576 380.815 940.112C380.815 942.648 381.093 944.708 381.65 946.312C382.206 947.917 382.981 949.086 383.955 949.819C384.929 950.552 386.061 950.928 387.353 950.928Z" fill="#AA4500"/>
<path d="M414.853 940.072C413.562 940.072 412.469 939.636 411.555 938.745C410.641 937.873 410.184 936.744 410.184 935.357C410.184 933.99 410.641 932.861 411.555 932.029C412.469 931.177 413.562 930.761 414.853 930.761C416.165 930.761 417.278 931.177 418.172 932.029C419.066 932.881 419.523 933.99 419.523 935.357C419.523 936.744 419.066 937.853 418.172 938.745C417.278 939.636 416.165 940.072 414.853 940.072ZM414.853 957.307C413.562 957.307 412.469 956.871 411.555 955.98C410.641 955.108 410.184 953.979 410.184 952.592C410.184 951.206 410.641 950.096 411.555 949.264C412.469 948.412 413.562 947.996 414.853 947.996C416.165 947.996 417.278 948.412 418.172 949.264C419.066 950.116 419.523 951.225 419.523 952.592C419.523 953.959 419.066 955.088 418.172 955.98C417.278 956.871 416.165 957.307 414.853 957.307Z" fill="#AA4500"/>
<path d="M438.779 957.505C436.434 957.505 434.109 957.188 431.804 956.574C429.499 955.94 427.531 955.069 425.922 953.92L428.962 947.976C430.254 948.908 431.744 949.64 433.433 950.175C435.142 950.73 436.851 950.988 438.58 950.988C440.527 950.988 442.077 950.611 443.21 949.839C444.323 949.066 444.899 948.016 444.899 946.669C444.899 945.381 444.402 944.391 443.409 943.638C442.415 942.905 440.806 942.529 438.6 942.529H435.043V937.398L444.442 926.799L445.316 929.592H427.651V923.352H451.238V928.384L441.899 938.982L437.944 936.724H440.209C444.343 936.724 447.482 937.655 449.609 939.517C451.735 941.38 452.788 943.757 452.788 946.669C452.788 948.551 452.291 950.334 451.298 951.978C450.304 953.622 448.774 954.97 446.727 955.98C444.621 956.99 441.978 957.505 438.779 957.505Z" fill="#AA4500"/>
<path d="M475.599 957.505C472.837 957.505 470.373 956.832 468.187 955.465C466.001 954.098 464.292 952.137 463.04 949.542C461.788 946.946 461.152 943.816 461.152 940.132C461.152 936.447 461.768 933.317 463.04 930.722C464.292 928.126 466.001 926.145 468.187 924.798C470.373 923.431 472.837 922.758 475.599 922.758C478.401 922.758 480.865 923.431 483.031 924.798C485.197 926.165 486.906 928.126 488.158 930.722C489.41 933.317 490.026 936.447 490.026 940.132C490.026 943.816 489.41 946.946 488.158 949.542C486.906 952.137 485.197 954.118 483.031 955.465C480.865 956.812 478.401 957.505 475.599 957.505ZM475.599 950.928C476.91 950.928 478.063 950.572 479.037 949.819C480.01 949.086 480.785 947.917 481.342 946.312C481.898 944.708 482.176 942.648 482.176 940.112C482.176 937.576 481.898 935.516 481.342 933.911C480.785 932.306 480.01 931.138 479.037 930.405C478.063 929.672 476.91 929.295 475.599 929.295C474.307 929.295 473.175 929.672 472.201 930.405C471.227 931.138 470.452 932.306 469.896 933.911C469.339 935.516 469.061 937.576 469.061 940.112C469.061 942.648 469.339 944.708 469.896 946.312C470.452 947.917 471.227 949.086 472.201 949.819C473.175 950.552 474.327 950.928 475.599 950.928Z" fill="#AA4500"/>
<path d="M524.797 980.881H350.285C347.762 980.881 345.715 978.841 345.715 976.325C345.715 973.809 347.762 971.769 350.285 971.769H524.777C527.301 971.769 529.347 973.809 529.347 976.325C529.367 978.841 527.32 980.881 524.797 980.881Z" fill="white"/>
<path d="M524.797 1005.45H350.285C347.762 1005.45 345.715 1003.41 345.715 1000.89C345.715 998.374 347.762 996.334 350.285 996.334H524.777C527.301 996.334 529.347 998.374 529.347 1000.89C529.367 1003.41 527.32 1005.45 524.797 1005.45Z" fill="white"/>
<path d="M410.519 1058.54H350.309C347.785 1058.54 345.738 1056.5 345.738 1053.98C345.738 1051.47 347.785 1049.42 350.309 1049.42H410.519C413.043 1049.42 415.09 1051.47 415.09 1053.98C415.09 1056.5 413.043 1058.54 410.519 1058.54Z" fill="white"/>
<path d="M151.359 525.677V647.194" stroke="#C4D9F5" stroke-width="3.92687" stroke-miterlimit="10"/>
<path d="M124.017 285C96.9587 285 75.0214 306.87 75.0214 333.845C75.0214 339.249 75.9109 344.426 77.5337 349.291L53 376.458L86.7053 365.493C95.6966 376.015 109.063 382.689 124.005 382.689C151.063 382.689 173 360.82 173 333.845C173.012 306.858 151.075 285 124.017 285Z" fill="#FDCB40"/>
<path d="M119.206 355.619C118.245 355.619 117.271 355.248 116.538 354.517L92.7612 330.813C91.2827 329.339 91.2827 326.967 92.7612 325.493C94.2397 324.019 96.6198 324.019 98.0983 325.493L119.206 346.536L149.93 315.906C151.409 314.432 153.789 314.432 155.267 315.906C156.746 317.38 156.746 319.752 155.267 321.226L121.875 354.517C121.141 355.248 120.168 355.619 119.206 355.619Z" fill="#FF9100"/>
</g>
</g>
<defs>
<linearGradient id="paint0_linear_364_5780" x1="65.278" y1="811.083" x2="693.591" y2="1173.84" gradientUnits="userSpaceOnUse">
<stop stop-color="#F99015"/>
<stop offset="1" stop-color="#DA8727" stop-opacity="0.67"/>
</linearGradient>
<linearGradient id="paint1_linear_364_5780" x1="882.467" y1="736.434" x2="-15.5179" y2="59.7539" gradientUnits="userSpaceOnUse">
<stop stop-color="#F99015"/>
<stop offset="1" stop-color="#DA8727" stop-opacity="0.67"/>
</linearGradient>
<linearGradient id="paint2_linear_364_5780" x1="151.351" y1="670.48" x2="723.736" y2="670.48" gradientUnits="userSpaceOnUse">
<stop stop-color="white"/>
<stop offset="0.3592" stop-color="#FCF8ED"/>
<stop offset="0.7427" stop-color="#FFD899"/>
</linearGradient>
<clipPath id="clip0_364_5780">
<rect width="1280" height="1080" fill="white"/>
</clipPath>
<clipPath id="clip1_364_5780">
<rect width="1280" height="1080" fill="white"/>
</clipPath>
</defs>
</svg>
