<svg width="202" height="184" viewBox="0 0 202 184" fill="none" xmlns="http://www.w3.org/2000/svg">
<g clip-path="url(#clip0_90_28928)">
<path fill-rule="evenodd" clip-rule="evenodd" d="M13.3595 3.77998C13.3582 3.28321 13.4551 2.79113 13.6446 2.33192C13.8341 1.87272 14.1125 1.45547 14.4637 1.1042C14.815 0.752932 15.2322 0.474543 15.6914 0.285047C16.1506 0.095552 16.6428 -0.00130614 17.1395 1.3301e-05H102.43L145.72 48V108.33C145.72 108.33 145.85 158.16 131.72 181.95C131.379 182.488 130.908 182.932 130.351 183.24C129.793 183.547 129.166 183.709 128.53 183.71H4.08953C3.43816 183.706 2.79872 183.535 2.23292 183.212C1.66711 182.889 1.19406 182.426 0.859368 181.867C0.524677 181.309 0.339652 180.673 0.322167 180.022C0.304682 179.371 0.455326 178.726 0.759545 178.15C12.4995 152.67 13.3595 108.32 13.3595 108.32V3.77998Z" fill="#FAFAFA"/>
<path fill-rule="evenodd" clip-rule="evenodd" d="M145.72 108.33C145.72 108.33 145.85 158.16 131.72 181.95C131.379 182.489 130.908 182.932 130.351 183.24C129.793 183.548 129.166 183.709 128.53 183.71H4.08953C3.43816 183.706 2.79872 183.535 2.23292 183.212C1.66711 182.889 1.19406 182.426 0.859368 181.868C0.524677 181.309 0.339652 180.673 0.322167 180.022C0.304682 179.371 0.455326 178.726 0.759545 178.15L0.909538 177.86C47.4795 180.05 115.1 171.86 124.01 168.41C133.52 164.69 145.53 128.94 145.71 108.83L145.72 108.33Z" fill="#E5E5E5"/>
<path fill-rule="evenodd" clip-rule="evenodd" d="M145.719 48C134.229 43.47 122.079 43.34 109.599 45.27C109.028 45.3572 108.445 45.3123 107.893 45.1387C107.342 44.9651 106.838 44.6674 106.42 44.2686C106.002 43.8697 105.681 43.3803 105.481 42.838C105.282 42.2956 105.209 41.7148 105.269 41.14C106.639 27.14 105.269 13.5 102.429 0C120.749 13.58 135.179 29.58 145.719 48Z" fill="#E5E5E5"/>
<path fill-rule="evenodd" clip-rule="evenodd" d="M32.2595 76.8608H81.8295C82.832 76.8608 83.7935 76.4625 84.5023 75.7537C85.2112 75.0448 85.6095 74.0833 85.6095 73.0807C85.6095 72.0782 85.2112 71.1168 84.5023 70.4079C83.7935 69.699 82.832 69.3008 81.8295 69.3008H32.2595C31.257 69.3008 30.2955 69.699 29.5866 70.4079C28.8777 71.1168 28.4795 72.0782 28.4795 73.0807C28.4795 74.0833 28.8777 75.0448 29.5866 75.7537C30.2955 76.4625 31.257 76.8608 32.2595 76.8608Z" fill="#E5E5E5"/>
<path fill-rule="evenodd" clip-rule="evenodd" d="M32.2595 95.7612H67.4795C68.482 95.7612 69.4435 95.3629 70.1523 94.654C70.8612 93.9451 71.2595 92.9837 71.2595 91.9811C71.2595 90.9786 70.8612 90.0172 70.1523 89.3083C69.4435 88.5994 68.482 88.2012 67.4795 88.2012H32.2595C31.257 88.2012 30.2955 88.5994 29.5866 89.3083C28.8777 90.0172 28.4795 90.9786 28.4795 91.9811C28.4795 92.9837 28.8777 93.9451 29.5866 94.654C30.2955 95.3629 31.257 95.7612 32.2595 95.7612Z" fill="#E5E5E5"/>
<path fill-rule="evenodd" clip-rule="evenodd" d="M32.2595 114.671H67.4795C68.482 114.671 69.4435 114.273 70.1523 113.564C70.8612 112.855 71.2595 111.894 71.2595 110.891C71.2595 109.889 70.8612 108.927 70.1523 108.218C69.4435 107.51 68.482 107.111 67.4795 107.111H32.2595C31.257 107.111 30.2955 107.51 29.5866 108.218C28.8777 108.927 28.4795 109.889 28.4795 110.891C28.4795 111.894 28.8777 112.855 29.5866 113.564C30.2955 114.273 31.257 114.671 32.2595 114.671Z" fill="#E5E5E5"/>
<path fill-rule="evenodd" clip-rule="evenodd" d="M32.2595 133.581H67.4795C68.482 133.581 69.4435 133.183 70.1523 132.474C70.8612 131.765 71.2595 130.804 71.2595 129.802C71.2595 128.799 70.8612 127.838 70.1523 127.129C69.4435 126.42 68.482 126.021 67.4795 126.021H32.2595C31.257 126.021 30.2955 126.42 29.5866 127.129C28.8777 127.838 28.4795 128.799 28.4795 129.802C28.4795 130.804 28.8777 131.765 29.5866 132.474C30.2955 133.183 31.257 133.581 32.2595 133.581Z" fill="#E5E5E5"/>
<path d="M144.949 171.88C176.281 171.88 201.679 146.481 201.679 115.15C201.679 83.8188 176.281 58.4199 144.949 58.4199C113.618 58.4199 88.2195 83.8188 88.2195 115.15C88.2195 146.481 113.618 171.88 144.949 171.88Z" fill="#F5F5F5"/>
<path fill-rule="evenodd" clip-rule="evenodd" d="M114.35 106.441C116.08 99.9382 119.702 94.0948 124.756 89.6513C129.809 85.2077 136.068 82.3639 142.739 81.4798C149.411 80.5958 156.194 81.7113 162.231 84.6851C168.268 87.659 173.286 92.3574 176.651 98.1854C180.016 104.013 181.575 110.709 181.132 117.424C180.689 124.139 178.263 130.571 174.162 135.906C170.061 141.242 164.468 145.24 158.093 147.395C151.718 149.55 144.847 149.764 138.35 148.011C137.87 147.88 137.368 147.845 136.875 147.907C136.381 147.969 135.904 148.128 135.472 148.375C134.599 148.873 133.96 149.697 133.695 150.666C133.429 151.636 133.56 152.671 134.058 153.544C134.556 154.417 135.38 155.056 136.35 155.321C144.301 157.461 152.709 157.193 160.508 154.551C168.307 151.91 175.146 147.012 180.16 140.48C185.174 133.949 188.136 126.075 188.672 117.859C189.208 109.642 187.294 101.45 183.171 94.3225C179.048 87.1945 172.903 81.4505 165.513 77.8178C158.123 74.1851 149.822 72.8272 141.659 73.9162C133.497 75.0051 125.842 78.4918 119.663 83.9347C113.484 89.3777 109.059 96.5319 106.95 104.491C106.684 105.461 106.815 106.496 107.313 107.369C107.811 108.242 108.635 108.881 109.605 109.146C110.574 109.412 111.609 109.281 112.482 108.783C113.355 108.285 113.994 107.461 114.26 106.491L114.35 106.441Z" fill="#E5E5E5"/>
<path fill-rule="evenodd" clip-rule="evenodd" d="M102.18 92.4705L106.91 106.861C107.066 107.332 107.313 107.768 107.638 108.144C107.963 108.52 108.358 108.828 108.802 109.051C109.246 109.274 109.73 109.407 110.225 109.443C110.72 109.479 111.218 109.417 111.69 109.261L126.05 104.491C126.521 104.334 126.957 104.085 127.332 103.76C127.708 103.435 128.016 103.038 128.238 102.594C128.46 102.15 128.593 101.666 128.629 101.17C128.664 100.675 128.602 100.177 128.445 99.7055C128.288 99.2341 128.039 98.7982 127.714 98.4227C127.389 98.0472 126.992 97.7394 126.548 97.517C126.104 97.2946 125.62 97.162 125.124 97.1265C124.629 97.0911 124.131 97.1536 123.66 97.3106L112.91 100.861L109.32 90.0905C109.172 89.6087 108.929 89.1614 108.606 88.7748C108.282 88.3882 107.885 88.0701 107.437 87.8394C106.989 87.6086 106.499 87.4698 105.997 87.4311C105.494 87.3924 104.989 87.4545 104.511 87.6139C104.033 87.7733 103.591 88.0267 103.212 88.3591C102.834 88.6916 102.525 89.0965 102.305 89.5499C102.085 90.0034 101.958 90.4962 101.931 90.9995C101.905 91.5028 101.979 92.0063 102.15 92.4805L102.18 92.4705Z" fill="#E5E5E5"/>
<path fill-rule="evenodd" clip-rule="evenodd" d="M144.96 96.241V120.971L133.04 131.181C132.663 131.504 132.353 131.898 132.128 132.341C131.904 132.784 131.769 133.266 131.731 133.761C131.654 134.761 131.977 135.75 132.63 136.511C133.282 137.272 134.21 137.743 135.21 137.82C136.209 137.897 137.198 137.573 137.96 136.921L151.2 125.581C151.611 125.224 151.942 124.784 152.17 124.289C152.398 123.794 152.517 123.256 152.52 122.711V96.241C152.52 95.2384 152.121 94.277 151.412 93.5681C150.704 92.8592 149.742 92.4609 148.74 92.4609C147.737 92.4609 146.776 92.8592 146.067 93.5681C145.358 94.277 144.96 95.2384 144.96 96.241Z" fill="#E5E5E5"/>
</g>
<defs>
<clipPath id="clip0_90_28928">
<rect width="201.359" height="183.71" fill="white" transform="translate(0.320801)"/>
</clipPath>
</defs>
</svg>
