<svg width="30" height="30" viewBox="0 0 30 30" fill="none" xmlns="http://www.w3.org/2000/svg">
<path d="M10.1437 21.25C9.56875 21.25 9.08875 21.0575 8.70375 20.6725C8.31792 20.2867 8.125 19.8062 8.125 19.2313V5.76875C8.125 5.19375 8.31792 4.71375 8.70375 4.32875C9.08875 3.94292 9.56875 3.75 10.1437 3.75H23.6063C24.1812 3.75 24.6613 3.94292 25.0463 4.32875C25.4321 4.71375 25.625 5.19375 25.625 5.76875V19.2313C25.625 19.8062 25.4325 20.2867 25.0475 20.6725C24.6617 21.0575 24.1812 21.25 23.6063 21.25H10.1437ZM6.39375 25C5.81875 25 5.33875 24.8075 4.95375 24.4225C4.56792 24.0367 4.375 23.5562 4.375 22.9813V8.26875H5.625V22.9813C5.625 23.1729 5.705 23.3492 5.865 23.51C6.02583 23.67 6.20208 23.75 6.39375 23.75H21.1063V25H6.39375ZM16.5875 8.7975H24.375V5.76875C24.375 5.57708 24.295 5.40083 24.135 5.24C23.9742 5.08 23.7979 5 23.6063 5H16.5863L16.5875 8.7975Z" fill="#F97316"/>
</svg>
