<svg width="30" height="30" viewBox="0 0 30 30" fill="none" xmlns="http://www.w3.org/2000/svg">
<path d="M16.25 16.25C17.5761 16.25 18.8479 16.7768 19.7855 17.7145C20.7232 18.6521 21.25 19.9239 21.25 21.25V23.125C21.25 23.6223 21.0525 24.0992 20.7008 24.4508C20.3492 24.8025 19.8723 25 19.375 25H4.375C3.87772 25 3.40081 24.8025 3.04917 24.4508C2.69754 24.0992 2.5 23.6223 2.5 23.125V21.25C2.5 19.9239 3.02678 18.6521 3.96447 17.7145C4.90215 16.7768 6.17392 16.25 7.5 16.25H16.25ZM23.75 16.25C24.7446 16.25 25.6984 16.6451 26.4017 17.3483C27.1049 18.0516 27.5 19.0054 27.5 20V21.875C27.5 22.3723 27.3025 22.8492 26.9508 23.2008C26.5992 23.5525 26.1223 23.75 25.625 23.75H23.75V21.25C23.7508 20.2796 23.5252 19.3224 23.0912 18.4544C22.6572 17.5864 22.0268 16.8316 21.25 16.25H23.75ZM11.875 3.75C13.3668 3.75 14.7976 4.34263 15.8525 5.39752C16.9074 6.45242 17.5 7.88316 17.5 9.375C17.5 10.8668 16.9074 12.2976 15.8525 13.3525C14.7976 14.4074 13.3668 15 11.875 15C10.3832 15 8.95242 14.4074 7.89752 13.3525C6.84263 12.2976 6.25 10.8668 6.25 9.375C6.25 7.88316 6.84263 6.45242 7.89752 5.39752C8.95242 4.34263 10.3832 3.75 11.875 3.75ZM22.5 7.5C23.4946 7.5 24.4484 7.89509 25.1517 8.59835C25.8549 9.30161 26.25 10.2554 26.25 11.25C26.25 12.2446 25.8549 13.1984 25.1517 13.9017C24.4484 14.6049 23.4946 15 22.5 15C21.5054 15 20.5516 14.6049 19.8483 13.9017C19.1451 13.1984 18.75 12.2446 18.75 11.25C18.75 10.2554 19.1451 9.30161 19.8483 8.59835C20.5516 7.89509 21.5054 7.5 22.5 7.5Z" fill="#22C55E"/>
</svg>
